<mxfile host="Electron" modified="2024-05-26T22:58:09.071Z" agent="Mozilla/5.0 (Windows NT 10.0; Win64; x64) AppleWebKit/537.36 (KHTML, like Gecko) draw.io/24.4.8 Chrome/124.0.6367.207 Electron/30.0.6 Safari/537.36" etag="WmvL8K_m5JMtQrOiNAgO" version="24.4.8" type="device">
  <diagram id="C5RBs43oDa-KdzZeNtuy" name="Page-1">
    <mxGraphModel dx="5736" dy="3344" grid="0" gridSize="10" guides="1" tooltips="1" connect="1" arrows="1" fold="1" page="1" pageScale="1" pageWidth="3300" pageHeight="2339" background="#ffffff" math="0" shadow="0">
      <root>
        <mxCell id="WIyWlLk6GJQsqaUBKTNV-0" />
        <mxCell id="WIyWlLk6GJQsqaUBKTNV-1" parent="WIyWlLk6GJQsqaUBKTNV-0" />
        <mxCell id="lW8Ky7CH6mHDjnRsKa6J-424" value="" style="group;fontFamily=isocpeur;" parent="WIyWlLk6GJQsqaUBKTNV-1" vertex="1" connectable="0">
          <mxGeometry x="1" y="1" width="3297" height="2337" as="geometry" />
        </mxCell>
        <UserObject label="&amp;nbsp;&lt;div style=&quot;font-size: 13px;&quot;&gt;&lt;/div&gt;" tags="Фон" id="lW8Ky7CH6mHDjnRsKa6J-364">
          <mxCell style="verticalAlign=middle;align=center;overflow=width;vsdxID=1;fillColor=none;gradientColor=none;shape=stencil(nZBLDoAgDERP0z3SIyjew0SURgSD+Lu9kMZoXLhwN9O+tukAlrNpJg1SzDH4QW/URgNYgZTkjA4UkwJUgGXng+6DX1zLfmoymdXo17xh5zmRJ6Q42BWCfc2oJfdAr+Yv+AP9Cb7OJ3H/2JG1HNGz/84klThPVCc=);strokeColor=#000000;strokeWidth=3;points=[];labelBackgroundColor=none;rounded=0;html=1;whiteSpace=wrap;fontSize=13;fontFamily=isocpeur;" parent="lW8Ky7CH6mHDjnRsKa6J-424" vertex="1">
            <mxGeometry x="2" y="1" width="3295" height="2336" as="geometry" />
          </mxCell>
        </UserObject>
        <UserObject label="" tags="Фон" id="lW8Ky7CH6mHDjnRsKa6J-365">
          <mxCell style="vsdxID=5;edgeStyle=none;startArrow=none;endArrow=none;startSize=5;endSize=5;strokeWidth=3;strokeColor=#000000;spacingTop=0;spacingBottom=0;spacingLeft=0;spacingRight=0;verticalAlign=middle;html=1;labelBackgroundColor=none;rounded=0;fontFamily=isocpeur;" parent="lW8Ky7CH6mHDjnRsKa6J-424" edge="1">
            <mxGeometry relative="1" as="geometry">
              <Array as="points" />
              <mxPoint x="2550.43329253366" y="2336" as="sourcePoint" />
              <mxPoint x="2550.43329253366" y="2116" as="targetPoint" />
            </mxGeometry>
          </mxCell>
        </UserObject>
        <UserObject label="" tags="Фон" id="lW8Ky7CH6mHDjnRsKa6J-366">
          <mxCell style="vsdxID=2;edgeStyle=none;startArrow=none;endArrow=none;startSize=5;endSize=5;strokeWidth=3;strokeColor=#000000;spacingTop=0;spacingBottom=0;spacingLeft=0;spacingRight=0;verticalAlign=middle;html=1;labelBackgroundColor=none;rounded=0;fontFamily=isocpeur;" parent="lW8Ky7CH6mHDjnRsKa6J-424" edge="1">
            <mxGeometry relative="1" as="geometry">
              <mxPoint as="offset" />
              <Array as="points" />
              <mxPoint x="2550.43329253366" y="2116" as="sourcePoint" />
              <mxPoint x="3297" y="2116" as="targetPoint" />
            </mxGeometry>
          </mxCell>
        </UserObject>
        <UserObject label="" tags="Фон" id="lW8Ky7CH6mHDjnRsKa6J-367">
          <mxCell style="vsdxID=6;edgeStyle=none;startArrow=none;endArrow=none;startSize=5;endSize=5;strokeWidth=3;strokeColor=#000000;spacingTop=0;spacingBottom=0;spacingLeft=0;spacingRight=0;verticalAlign=middle;html=1;labelBackgroundColor=none;rounded=0;fontFamily=isocpeur;" parent="lW8Ky7CH6mHDjnRsKa6J-424" edge="1">
            <mxGeometry relative="1" as="geometry">
              <mxPoint as="offset" />
              <Array as="points" />
              <mxPoint x="2550.43329253366" y="2176" as="sourcePoint" />
              <mxPoint x="3297" y="2176" as="targetPoint" />
            </mxGeometry>
          </mxCell>
        </UserObject>
        <UserObject label="" tags="Фон" id="lW8Ky7CH6mHDjnRsKa6J-368">
          <mxCell style="vsdxID=8;edgeStyle=none;startArrow=none;endArrow=none;startSize=5;endSize=5;strokeWidth=3;strokeColor=#000000;spacingTop=0;spacingBottom=0;spacingLeft=0;spacingRight=0;verticalAlign=middle;html=1;labelBackgroundColor=none;rounded=0;fontFamily=isocpeur;" parent="lW8Ky7CH6mHDjnRsKa6J-424" edge="1">
            <mxGeometry relative="1" as="geometry">
              <Array as="points" />
              <mxPoint x="2619.0367197062424" y="2336" as="sourcePoint" />
              <mxPoint x="2619.0367197062424" y="2116" as="targetPoint" />
            </mxGeometry>
          </mxCell>
        </UserObject>
        <UserObject label="" tags="Фон" id="lW8Ky7CH6mHDjnRsKa6J-369">
          <mxCell style="vsdxID=9;edgeStyle=none;startArrow=none;endArrow=none;startSize=5;endSize=5;strokeWidth=3;strokeColor=#000000;spacingTop=0;spacingBottom=0;spacingLeft=0;spacingRight=0;verticalAlign=middle;html=1;labelBackgroundColor=none;rounded=0;fontFamily=isocpeur;" parent="lW8Ky7CH6mHDjnRsKa6J-424" edge="1">
            <mxGeometry relative="1" as="geometry">
              <Array as="points" />
              <mxPoint x="2711.8531211750305" y="2336" as="sourcePoint" />
              <mxPoint x="2711.8531211750305" y="2116" as="targetPoint" />
            </mxGeometry>
          </mxCell>
        </UserObject>
        <UserObject label="" tags="Фон" id="lW8Ky7CH6mHDjnRsKa6J-370">
          <mxCell style="vsdxID=10;edgeStyle=none;startArrow=none;endArrow=none;startSize=5;endSize=5;strokeWidth=3;strokeColor=#000000;spacingTop=0;spacingBottom=0;spacingLeft=0;spacingRight=0;verticalAlign=middle;html=1;labelBackgroundColor=none;rounded=0;fontFamily=isocpeur;" parent="lW8Ky7CH6mHDjnRsKa6J-424" edge="1">
            <mxGeometry relative="1" as="geometry">
              <Array as="points" />
              <mxPoint x="2772.385556915545" y="2336" as="sourcePoint" />
              <mxPoint x="2772.385556915545" y="2116" as="targetPoint" />
            </mxGeometry>
          </mxCell>
        </UserObject>
        <UserObject label="" tags="Фон" id="lW8Ky7CH6mHDjnRsKa6J-371">
          <mxCell style="vsdxID=11;edgeStyle=none;startArrow=none;endArrow=none;startSize=5;endSize=5;strokeWidth=3;strokeColor=#000000;spacingTop=0;spacingBottom=0;spacingLeft=0;spacingRight=0;verticalAlign=middle;html=1;labelBackgroundColor=none;rounded=0;fontFamily=isocpeur;" parent="lW8Ky7CH6mHDjnRsKa6J-424" edge="1">
            <mxGeometry relative="1" as="geometry">
              <Array as="points" />
              <mxPoint x="2812.7405140758874" y="2336" as="sourcePoint" />
              <mxPoint x="2812.7405140758874" y="2116" as="targetPoint" />
            </mxGeometry>
          </mxCell>
        </UserObject>
        <UserObject label="" tags="Фон" id="lW8Ky7CH6mHDjnRsKa6J-372">
          <mxCell style="vsdxID=12;edgeStyle=none;startArrow=none;endArrow=none;startSize=5;endSize=5;strokeWidth=3;strokeColor=#000000;spacingTop=0;spacingBottom=0;spacingLeft=0;spacingRight=0;verticalAlign=middle;html=1;labelBackgroundColor=none;rounded=0;fontFamily=isocpeur;" parent="lW8Ky7CH6mHDjnRsKa6J-424" edge="1">
            <mxGeometry relative="1" as="geometry">
              <Array as="points" />
              <mxPoint x="3095.2252141982867" y="2336" as="sourcePoint" />
              <mxPoint x="3095.2252141982867" y="2176" as="targetPoint" />
            </mxGeometry>
          </mxCell>
        </UserObject>
        <UserObject label="" tags="Фон" id="lW8Ky7CH6mHDjnRsKa6J-373">
          <mxCell style="vsdxID=13;edgeStyle=none;startArrow=none;endArrow=none;startSize=5;endSize=5;strokeColor=#000000;spacingTop=0;spacingBottom=0;spacingLeft=0;spacingRight=0;verticalAlign=middle;html=1;labelBackgroundColor=none;rounded=0;fontFamily=isocpeur;" parent="lW8Ky7CH6mHDjnRsKa6J-424" edge="1">
            <mxGeometry relative="1" as="geometry">
              <mxPoint as="offset" />
              <Array as="points" />
              <mxPoint x="2550.43329253366" y="2316" as="sourcePoint" />
              <mxPoint x="2812.7405140758874" y="2316" as="targetPoint" />
            </mxGeometry>
          </mxCell>
        </UserObject>
        <UserObject label="&lt;div style=&quot;font-size: 1px&quot;&gt;&lt;/div&gt;" tags="Фон" id="lW8Ky7CH6mHDjnRsKa6J-374">
          <mxCell style="vsdxID=14;edgeStyle=none;startArrow=none;endArrow=none;startSize=5;endSize=5;strokeColor=#000000;spacingTop=0;spacingBottom=0;spacingLeft=0;spacingRight=0;verticalAlign=middle;html=1;labelBackgroundColor=none;rounded=0;align=center;fontFamily=isocpeur;" parent="lW8Ky7CH6mHDjnRsKa6J-424" edge="1">
            <mxGeometry relative="1" as="geometry">
              <mxPoint as="offset" />
              <Array as="points" />
              <mxPoint x="2550.43329253366" y="2296" as="sourcePoint" />
              <mxPoint x="2812.7405140758874" y="2296" as="targetPoint" />
            </mxGeometry>
          </mxCell>
        </UserObject>
        <UserObject label="" tags="Фон" id="lW8Ky7CH6mHDjnRsKa6J-375">
          <mxCell style="vsdxID=15;edgeStyle=none;startArrow=none;endArrow=none;startSize=5;endSize=5;strokeColor=#000000;spacingTop=0;spacingBottom=0;spacingLeft=0;spacingRight=0;verticalAlign=middle;html=1;labelBackgroundColor=none;rounded=0;fontFamily=isocpeur;" parent="lW8Ky7CH6mHDjnRsKa6J-424" edge="1">
            <mxGeometry relative="1" as="geometry">
              <mxPoint as="offset" />
              <Array as="points" />
              <mxPoint x="2550.43329253366" y="2256" as="sourcePoint" />
              <mxPoint x="2812.7405140758874" y="2256" as="targetPoint" />
            </mxGeometry>
          </mxCell>
        </UserObject>
        <UserObject label="" tags="Фон" id="lW8Ky7CH6mHDjnRsKa6J-376">
          <mxCell style="vsdxID=16;edgeStyle=none;startArrow=none;endArrow=none;startSize=5;endSize=5;strokeColor=#000000;spacingTop=0;spacingBottom=0;spacingLeft=0;spacingRight=0;verticalAlign=middle;html=1;labelBackgroundColor=none;rounded=0;fontFamily=isocpeur;" parent="lW8Ky7CH6mHDjnRsKa6J-424" edge="1">
            <mxGeometry relative="1" as="geometry">
              <mxPoint as="offset" />
              <Array as="points" />
              <mxPoint x="2550.43329253366" y="2236" as="sourcePoint" />
              <mxPoint x="2812.7405140758874" y="2236" as="targetPoint" />
            </mxGeometry>
          </mxCell>
        </UserObject>
        <UserObject label="&lt;div style=&quot;font-size: 1px&quot;&gt;&lt;/div&gt;" tags="Фон" id="lW8Ky7CH6mHDjnRsKa6J-377">
          <mxCell style="vsdxID=17;edgeStyle=none;startArrow=none;endArrow=none;startSize=5;endSize=5;strokeWidth=3;strokeColor=#000000;spacingTop=0;spacingBottom=0;spacingLeft=0;spacingRight=0;verticalAlign=middle;html=1;labelBackgroundColor=none;rounded=0;align=center;fontFamily=isocpeur;" parent="lW8Ky7CH6mHDjnRsKa6J-424" edge="1">
            <mxGeometry relative="1" as="geometry">
              <mxPoint as="offset" />
              <Array as="points" />
              <mxPoint x="2550.43329253366" y="2216" as="sourcePoint" />
              <mxPoint x="2812.7405140758874" y="2216" as="targetPoint" />
            </mxGeometry>
          </mxCell>
        </UserObject>
        <UserObject label="" tags="Фон" id="lW8Ky7CH6mHDjnRsKa6J-378">
          <mxCell style="vsdxID=18;edgeStyle=none;startArrow=none;endArrow=none;startSize=5;endSize=5;strokeWidth=3;strokeColor=#000000;spacingTop=0;spacingBottom=0;spacingLeft=0;spacingRight=0;verticalAlign=middle;html=1;labelBackgroundColor=none;rounded=0;fontFamily=isocpeur;" parent="lW8Ky7CH6mHDjnRsKa6J-424" edge="1">
            <mxGeometry relative="1" as="geometry">
              <mxPoint as="offset" />
              <Array as="points" />
              <mxPoint x="2550.43329253366" y="2196" as="sourcePoint" />
              <mxPoint x="2812.7405140758874" y="2196" as="targetPoint" />
            </mxGeometry>
          </mxCell>
        </UserObject>
        <UserObject label="" tags="Фон" id="lW8Ky7CH6mHDjnRsKa6J-379">
          <mxCell style="vsdxID=19;edgeStyle=none;startArrow=none;endArrow=none;startSize=5;endSize=5;strokeColor=#000000;spacingTop=0;spacingBottom=0;spacingLeft=0;spacingRight=0;verticalAlign=middle;html=1;labelBackgroundColor=none;rounded=0;fontFamily=isocpeur;" parent="lW8Ky7CH6mHDjnRsKa6J-424" edge="1">
            <mxGeometry relative="1" as="geometry">
              <mxPoint as="offset" />
              <Array as="points" />
              <mxPoint x="2550.43329253366" y="2156" as="sourcePoint" />
              <mxPoint x="2812.7405140758874" y="2156" as="targetPoint" />
            </mxGeometry>
          </mxCell>
        </UserObject>
        <UserObject label="" tags="Фон" id="lW8Ky7CH6mHDjnRsKa6J-380">
          <mxCell style="vsdxID=20;edgeStyle=none;startArrow=none;endArrow=none;startSize=5;endSize=5;strokeColor=#000000;spacingTop=0;spacingBottom=0;spacingLeft=0;spacingRight=0;verticalAlign=middle;html=1;labelBackgroundColor=none;rounded=0;fontFamily=isocpeur;" parent="lW8Ky7CH6mHDjnRsKa6J-424" edge="1">
            <mxGeometry relative="1" as="geometry">
              <mxPoint as="offset" />
              <Array as="points" />
              <mxPoint x="2550.43329253366" y="2136" as="sourcePoint" />
              <mxPoint x="2812.7405140758874" y="2136" as="targetPoint" />
            </mxGeometry>
          </mxCell>
        </UserObject>
        <UserObject label="" tags="Фон" id="lW8Ky7CH6mHDjnRsKa6J-381">
          <mxCell style="vsdxID=21;edgeStyle=none;startArrow=none;endArrow=none;startSize=5;endSize=5;strokeWidth=3;strokeColor=#000000;spacingTop=0;spacingBottom=0;spacingLeft=0;spacingRight=0;verticalAlign=middle;html=1;labelBackgroundColor=none;rounded=0;fontFamily=isocpeur;" parent="lW8Ky7CH6mHDjnRsKa6J-424" edge="1">
            <mxGeometry relative="1" as="geometry">
              <Array as="points" />
              <mxPoint x="2578.6817625459" y="2116" as="sourcePoint" />
              <mxPoint x="2578.6817625459" y="2216" as="targetPoint" />
            </mxGeometry>
          </mxCell>
        </UserObject>
        <mxCell id="lW8Ky7CH6mHDjnRsKa6J-382" value="&lt;div style=&quot;font-size: 1px&quot;&gt;&lt;/div&gt;" style="text;vsdxID=21;edgeStyle=none;startArrow=none;endArrow=none;startSize=5;endSize=5;strokeWidth=3;strokeColor=none;spacingTop=0;spacingBottom=0;spacingLeft=0;spacingRight=0;verticalAlign=middle;html=1;labelBackgroundColor=none;rounded=0;align=center;overflow=width;fillColor=none;gradientColor=none;whiteSpace=wrap;;html=1;;rotation=270;fontFamily=isocpeur;" parent="lW8Ky7CH6mHDjnRsKa6J-381" vertex="1">
          <mxGeometry width="100" height="1" relative="1" as="geometry">
            <mxPoint y="-0.5" as="offset" />
          </mxGeometry>
        </mxCell>
        <UserObject label="" tags="Фон" id="lW8Ky7CH6mHDjnRsKa6J-383">
          <mxCell style="vsdxID=22;edgeStyle=none;startArrow=none;endArrow=none;startSize=5;endSize=5;strokeWidth=3;strokeColor=#000000;spacingTop=0;spacingBottom=0;spacingLeft=0;spacingRight=0;verticalAlign=middle;html=1;labelBackgroundColor=none;rounded=0;fontFamily=isocpeur;" parent="lW8Ky7CH6mHDjnRsKa6J-424" edge="1">
            <mxGeometry relative="1" as="geometry">
              <mxPoint as="offset" />
              <Array as="points" />
              <mxPoint x="3095.2252141982867" y="2256" as="sourcePoint" />
              <mxPoint x="3297" y="2256" as="targetPoint" />
            </mxGeometry>
          </mxCell>
        </UserObject>
        <UserObject label="" tags="Фон" id="lW8Ky7CH6mHDjnRsKa6J-384">
          <mxCell style="vsdxID=23;edgeStyle=none;startArrow=none;endArrow=none;startSize=5;endSize=5;strokeWidth=3;strokeColor=#000000;spacingTop=0;spacingBottom=0;spacingLeft=0;spacingRight=0;verticalAlign=middle;html=1;labelBackgroundColor=none;rounded=0;fontFamily=isocpeur;" parent="lW8Ky7CH6mHDjnRsKa6J-424" edge="1">
            <mxGeometry relative="1" as="geometry">
              <mxPoint as="offset" />
              <Array as="points" />
              <mxPoint x="3095.2252141982867" y="2196" as="sourcePoint" />
              <mxPoint x="3297" y="2196" as="targetPoint" />
            </mxGeometry>
          </mxCell>
        </UserObject>
        <UserObject label="" tags="Фон" id="lW8Ky7CH6mHDjnRsKa6J-385">
          <mxCell style="vsdxID=24;edgeStyle=none;startArrow=none;endArrow=none;startSize=5;endSize=5;strokeColor=#000000;spacingTop=0;spacingBottom=0;spacingLeft=0;spacingRight=0;verticalAlign=middle;html=1;labelBackgroundColor=none;rounded=0;fontFamily=isocpeur;" parent="lW8Ky7CH6mHDjnRsKa6J-424" edge="1">
            <mxGeometry relative="1" as="geometry">
              <Array as="points" />
              <mxPoint x="3115.402692778458" y="2196" as="sourcePoint" />
              <mxPoint x="3115.402692778458" y="2256" as="targetPoint" />
            </mxGeometry>
          </mxCell>
        </UserObject>
        <UserObject label="" tags="Фон" id="lW8Ky7CH6mHDjnRsKa6J-386">
          <mxCell style="vsdxID=25;edgeStyle=none;startArrow=none;endArrow=none;startSize=5;endSize=5;strokeColor=#000000;spacingTop=0;spacingBottom=0;spacingLeft=0;spacingRight=0;verticalAlign=middle;html=1;labelBackgroundColor=none;rounded=0;fontFamily=isocpeur;" parent="lW8Ky7CH6mHDjnRsKa6J-424" edge="1">
            <mxGeometry relative="1" as="geometry">
              <Array as="points" />
              <mxPoint x="3135.5801713586293" y="2196" as="sourcePoint" />
              <mxPoint x="3135.5801713586293" y="2256" as="targetPoint" />
            </mxGeometry>
          </mxCell>
        </UserObject>
        <UserObject label="" tags="Фон" id="lW8Ky7CH6mHDjnRsKa6J-387">
          <mxCell style="vsdxID=26;edgeStyle=none;startArrow=none;endArrow=none;startSize=5;endSize=5;strokeWidth=3;strokeColor=#000000;spacingTop=0;spacingBottom=0;spacingLeft=0;spacingRight=0;verticalAlign=middle;html=1;labelBackgroundColor=none;rounded=0;fontFamily=isocpeur;" parent="lW8Ky7CH6mHDjnRsKa6J-424" edge="1">
            <mxGeometry relative="1" as="geometry">
              <Array as="points" />
              <mxPoint x="3155.7576499388006" y="2176" as="sourcePoint" />
              <mxPoint x="3155.7576499388006" y="2256" as="targetPoint" />
            </mxGeometry>
          </mxCell>
        </UserObject>
        <UserObject label="" tags="Фон" id="lW8Ky7CH6mHDjnRsKa6J-388">
          <mxCell style="vsdxID=27;edgeStyle=none;startArrow=none;endArrow=none;startSize=5;endSize=5;strokeWidth=3;strokeColor=#000000;spacingTop=0;spacingBottom=0;spacingLeft=0;spacingRight=0;verticalAlign=middle;html=1;labelBackgroundColor=none;rounded=0;fontFamily=isocpeur;" parent="lW8Ky7CH6mHDjnRsKa6J-424" edge="1">
            <mxGeometry relative="1" as="geometry">
              <Array as="points" />
              <mxPoint x="3222.343329253366" y="2176" as="sourcePoint" />
              <mxPoint x="3222.343329253366" y="2256" as="targetPoint" />
            </mxGeometry>
          </mxCell>
        </UserObject>
        <UserObject label="" tags="Фон" id="lW8Ky7CH6mHDjnRsKa6J-389">
          <mxCell style="vsdxID=28;edgeStyle=none;startArrow=none;endArrow=none;startSize=5;endSize=5;strokeWidth=3;strokeColor=#000000;spacingTop=0;spacingBottom=0;spacingLeft=0;spacingRight=0;verticalAlign=middle;html=1;labelBackgroundColor=none;rounded=0;fontFamily=isocpeur;" parent="lW8Ky7CH6mHDjnRsKa6J-424" edge="1">
            <mxGeometry relative="1" as="geometry">
              <Array as="points" />
              <mxPoint x="3175.935128518972" y="2256" as="sourcePoint" />
              <mxPoint x="3175.935128518972" y="2276" as="targetPoint" />
            </mxGeometry>
          </mxCell>
        </UserObject>
        <UserObject label="&lt;div style=&quot;font-size: 1px&quot;&gt;&lt;p style=&quot;text-align:center;margin-left:0;margin-right:0;margin-top:0px;margin-bottom:0px;text-indent:0;vertical-align:middle;direction:ltr;&quot;&gt;&lt;font style=&quot;font-size: 42.33px; color: rgb(0, 0, 0); direction: ltr; letter-spacing: 0px; line-height: 100%; opacity: 1;&quot;&gt;&lt;i&gt;ГУИР 502900&lt;/i&gt;&lt;/font&gt;&lt;font style=&quot;font-size: 42.33px; color: rgb(0, 0, 0); direction: ltr; letter-spacing: 0px; line-height: 100%; opacity: 1;&quot;&gt;&lt;i&gt;.&lt;/i&gt;&lt;/font&gt;&lt;font style=&quot;font-size: 42.33px; color: rgb(0, 0, 0); direction: ltr; letter-spacing: 0px; line-height: 100%; opacity: 1;&quot;&gt;&lt;i&gt;004&lt;/i&gt;&lt;/font&gt;&lt;font style=&quot;font-size: 42.33px; color: rgb(0, 0, 0); direction: ltr; letter-spacing: 0px; line-height: 100%; opacity: 1;&quot;&gt;&lt;i&gt;&amp;nbsp;&lt;/i&gt;&lt;/font&gt;&lt;font style=&quot;font-size: 42.33px; color: rgb(0, 0, 0); direction: ltr; letter-spacing: 0px; line-height: 100%; opacity: 1;&quot;&gt;&lt;i&gt;ПД&lt;/i&gt;&lt;/font&gt;&lt;font style=&quot;font-size: 42.33px; color: rgb(0, 0, 0); direction: ltr; letter-spacing: 0px; line-height: 100%; opacity: 1;&quot;&gt;&lt;i&gt;&lt;br&gt;&lt;/i&gt;&lt;/font&gt;&lt;/p&gt;&lt;/div&gt;" tags="Фон" id="lW8Ky7CH6mHDjnRsKa6J-393">
          <mxCell style="verticalAlign=middle;align=center;overflow=width;vsdxID=232;fillColor=none;gradientColor=none;shape=stencil(nZBLDoAgDERP0z3SIyjew0SURgSD+Lu9kMZoXLhwN9O+tukAlrNpJg1SzDH4QW/URgNYgZTkjA4UkwJUgGXng+6DX1zLfmoymdXo17xh5zmRJ6Q42BWCfc2oJfdAr+Yv+AP9Cb7OJ3H/2JG1HNGz/84klThPVCc=);strokeColor=none;points=[];labelBackgroundColor=none;rounded=0;html=1;whiteSpace=wrap;fontFamily=isocpeur;" parent="lW8Ky7CH6mHDjnRsKa6J-424" vertex="1">
            <mxGeometry x="2811.731640146879" y="2118" width="484.25948592411265" height="60" as="geometry" />
          </mxCell>
        </UserObject>
        <UserObject label="" tags="Фон" id="lW8Ky7CH6mHDjnRsKa6J-394">
          <mxCell style="vsdxID=235;fillColor=#FFFFFF;gradientColor=none;shape=stencil(nY9LDoAgDERP0z3SI/i5B4koRAWC+Lu9NI3xs3Q3075ppoDlbFTQIMWcoh/0ZttkACuQ0jqjo01ZAdaAZeej7qNfXMs+KCJJTX6lCzvnBCWkONgVgn3D6GjdA72Wv+AXmsXdh1957r7d84j/xvoE);strokeColor=#000000;strokeWidth=4;points=[];labelBackgroundColor=none;rounded=0;html=1;whiteSpace=wrap;fontFamily=isocpeur;" parent="lW8Ky7CH6mHDjnRsKa6J-424" vertex="1">
            <mxGeometry x="5.04436964504284" y="1" width="282.48470012239903" height="57" as="geometry" />
          </mxCell>
        </UserObject>
        <UserObject label="&lt;div style=&quot;font-size: 1px&quot;&gt;&lt;p style=&quot;text-align:center;margin-left:0;margin-right:0;margin-top:0px;margin-bottom:0px;text-indent:0;vertical-align:middle;direction:ltr;&quot;&gt;&lt;font style=&quot;font-size: 25.4px; color: rgb(0, 0, 0); direction: ltr; letter-spacing: 0px; line-height: 100%; opacity: 1;&quot;&gt;&lt;i&gt;ИПиЭ,&lt;/i&gt;&lt;/font&gt;&lt;font style=&quot;font-size: 25.4px; color: rgb(0, 0, 0); direction: ltr; letter-spacing: 0px; line-height: 100%; opacity: 1;&quot;&gt;&lt;i&gt; &lt;/i&gt;&lt;/font&gt;&lt;font style=&quot;font-size: 25.4px; color: rgb(0, 0, 0); direction: ltr; letter-spacing: 0px; line-height: 100%; opacity: 1;&quot;&gt;&lt;i&gt;гр.010902&lt;/i&gt;&lt;/font&gt;&lt;font style=&quot;font-size: 25.4px; color: rgb(0, 0, 0); direction: ltr; letter-spacing: 0px; line-height: 100%; opacity: 1;&quot;&gt;&lt;i&gt;&lt;br&gt;&lt;/i&gt;&lt;/font&gt;&lt;/p&gt;&lt;/div&gt;" tags="Фон" id="lW8Ky7CH6mHDjnRsKa6J-395">
          <mxCell style="verticalAlign=middle;align=center;overflow=width;vsdxID=246;fillColor=none;gradientColor=none;shape=stencil(nZBLDoAgDERP0z3SIyjew0SURgSD+Lu9kMZoXLhwN9O+tukAlrNpJg1SzDH4QW/URgNYgZTkjA4UkwJUgGXng+6DX1zLfmoymdXo17xh5zmRJ6Q42BWCfc2oJfdAr+Yv+AP9Cb7OJ3H/2JG1HNGz/84klThPVCc=);strokeColor=none;points=[[1,0.02,0]];labelBackgroundColor=none;rounded=0;html=1;whiteSpace=wrap;fontFamily=isocpeur;" parent="lW8Ky7CH6mHDjnRsKa6J-424" vertex="1">
            <mxGeometry x="3094.216340269278" y="2275" width="201.7747858017136" height="60" as="geometry" />
          </mxCell>
        </UserObject>
        <UserObject label="&lt;div style=&quot;font-size: 1px&quot;&gt;&lt;p style=&quot;text-align:center;margin-left:0;margin-right:0;margin-top:0px;margin-bottom:0px;text-indent:0;vertical-align:middle;direction:ltr;&quot;&gt;&lt;font style=&quot;font-size: 14.11px; color: rgb(0, 0, 0); direction: ltr; letter-spacing: 0px; line-height: 120%; opacity: 1;&quot;&gt;&lt;i&gt;N &lt;/i&gt;&lt;/font&gt;&lt;font style=&quot;font-size: 14.11px; color: rgb(0, 0, 0); direction: ltr; letter-spacing: 0px; line-height: 120%; opacity: 1;&quot;&gt;&lt;i&gt;докум.&lt;br&gt;&lt;/i&gt;&lt;/font&gt;&lt;/p&gt;&lt;/div&gt;" tags="Фон" id="lW8Ky7CH6mHDjnRsKa6J-396">
          <mxCell style="verticalAlign=middle;align=center;overflow=width;vsdxID=380;fillColor=none;gradientColor=none;shape=stencil(nZBLDoAgDERP0z3SIyjew0SURgSD+Lu9kMZoXLhwN9O+tukAlrNpJg1SzDH4QW/URgNYgZTkjA4UkwJUgGXng+6DX1zLfmoymdXo17xh5zmRJ6Q42BWCfc2oJfdAr+Yv+AP9Cb7OJ3H/2JG1HNGz/84klThPVCc=);strokeColor=none;points=[];labelBackgroundColor=none;rounded=0;html=1;whiteSpace=wrap;fontFamily=isocpeur;" parent="lW8Ky7CH6mHDjnRsKa6J-424" vertex="1">
            <mxGeometry x="2619.0367197062424" y="2197" width="90.79865361077111" height="20" as="geometry" />
          </mxCell>
        </UserObject>
        <UserObject label="&lt;div style=&quot;font-size: 1px&quot;&gt;&lt;font style=&quot;font-size: 14.11px; color: rgb(0, 0, 0); direction: ltr; letter-spacing: 0px; line-height: 120%; opacity: 1;&quot;&gt;&lt;i&gt;Подпись&lt;br&gt;&lt;/i&gt;&lt;/font&gt;&lt;/div&gt;" tags="Фон" id="lW8Ky7CH6mHDjnRsKa6J-397">
          <mxCell style="verticalAlign=middle;align=center;overflow=width;vsdxID=381;fillColor=none;gradientColor=none;shape=stencil(nZBLDoAgDERP0z3SIyjew0SURgSD+Lu9kMZoXLhwN9O+tukAlrNpJg1SzDH4QW/URgNYgZTkjA4UkwJUgGXng+6DX1zLfmoymdXo17xh5zmRJ6Q42BWCfc2oJfdAr+Yv+AP9Cb7OJ3H/2JG1HNGz/84klThPVCc=);strokeColor=none;points=[];labelBackgroundColor=none;rounded=0;html=1;whiteSpace=wrap;fontFamily=isocpeur;" parent="lW8Ky7CH6mHDjnRsKa6J-424" vertex="1">
            <mxGeometry x="2709.835373317014" y="2197" width="64.56793145654835" height="20" as="geometry" />
          </mxCell>
        </UserObject>
        <UserObject label="&lt;div style=&quot;font-size: 1px&quot;&gt;&lt;font style=&quot;font-size: 14.11px; color: rgb(0, 0, 0); direction: ltr; letter-spacing: 0px; line-height: 120%; opacity: 1;&quot;&gt;&lt;i&gt;Дата&lt;br&gt;&lt;/i&gt;&lt;/font&gt;&lt;/div&gt;" tags="Фон" id="lW8Ky7CH6mHDjnRsKa6J-398">
          <mxCell style="verticalAlign=middle;align=center;overflow=width;vsdxID=382;fillColor=none;gradientColor=none;shape=stencil(nZBLDoAgDERP0z3SIyjew0SURgSD+Lu9kMZoXLhwN9O+tukAlrNpJg1SzDH4QW/URgNYgZTkjA4UkwJUgGXng+6DX1zLfmoymdXo17xh5zmRJ6Q42BWCfc2oJfdAr+Yv+AP9Cb7OJ3H/2JG1HNGz/84klThPVCc=);strokeColor=none;points=[];labelBackgroundColor=none;rounded=0;html=1;whiteSpace=wrap;fontFamily=isocpeur;" parent="lW8Ky7CH6mHDjnRsKa6J-424" vertex="1">
            <mxGeometry x="2768.3500611995105" y="2197" width="50.4436964504284" height="20" as="geometry" />
          </mxCell>
        </UserObject>
        <UserObject label="&lt;div style=&quot;font-size: 1px&quot;&gt;&lt;font style=&quot;font-size: 14.11px; color: rgb(0, 0, 0); direction: ltr; letter-spacing: 0px; line-height: 120%; opacity: 1;&quot;&gt;&lt;i&gt;Изм&lt;br&gt;&lt;/i&gt;&lt;/font&gt;&lt;/div&gt;" tags="Фон" id="lW8Ky7CH6mHDjnRsKa6J-399">
          <mxCell style="verticalAlign=middle;align=center;overflow=width;vsdxID=384;fillColor=none;gradientColor=none;shape=stencil(nZBLDoAgDERP0z3SIyjew0SURgSD+Lu9kMZoXLhwN9O+tukAlrNpJg1SzDH4QW/URgNYgZTkjA4UkwJUgGXng+6DX1zLfmoymdXo17xh5zmRJ6Q42BWCfc2oJfdAr+Yv+AP9Cb7OJ3H/2JG1HNGz/84klThPVCc=);strokeColor=none;points=[];labelBackgroundColor=none;rounded=0;html=1;whiteSpace=wrap;fontFamily=isocpeur;" parent="lW8Ky7CH6mHDjnRsKa6J-424" vertex="1">
            <mxGeometry x="2545.388922888617" y="2197" width="36.319461444308445" height="20" as="geometry" />
          </mxCell>
        </UserObject>
        <UserObject label="&lt;div style=&quot;font-size: 1px&quot;&gt;&lt;font style=&quot;font-size: 14.11px; color: rgb(0, 0, 0); direction: ltr; letter-spacing: 0px; line-height: 120%; opacity: 1;&quot;&gt;&lt;i&gt;Лист&lt;br&gt;&lt;/i&gt;&lt;/font&gt;&lt;/div&gt;" tags="Фон" id="lW8Ky7CH6mHDjnRsKa6J-400">
          <mxCell style="verticalAlign=middle;align=center;overflow=width;vsdxID=385;fillColor=none;gradientColor=none;shape=stencil(nZBLDoAgDERP0z3SIyjew0SURgSD+Lu9kMZoXLhwN9O+tukAlrNpJg1SzDH4QW/URgNYgZTkjA4UkwJUgGXng+6DX1zLfmoymdXo17xh5zmRJ6Q42BWCfc2oJfdAr+Yv+AP9Cb7OJ3H/2JG1HNGz/84klThPVCc=);strokeColor=none;points=[];labelBackgroundColor=none;rounded=0;html=1;whiteSpace=wrap;fontFamily=isocpeur;" parent="lW8Ky7CH6mHDjnRsKa6J-424" vertex="1">
            <mxGeometry x="2576.6640146878826" y="2197" width="45.399326805385556" height="20" as="geometry" />
          </mxCell>
        </UserObject>
        <UserObject label="&lt;div style=&quot;font-size: 1px&quot;&gt;&lt;p style=&quot;text-align:left;margin-left:0;margin-right:0;margin-top:0px;margin-bottom:0px;text-indent:0;vertical-align:middle;direction:ltr;&quot;&gt;&lt;font style=&quot;font-size: 14.11px; color: rgb(0, 0, 0); direction: ltr; letter-spacing: 0px; line-height: 120%; opacity: 1;&quot;&gt;&lt;i&gt;Пров.&lt;br&gt;&lt;/i&gt;&lt;/font&gt;&lt;/p&gt;&lt;/div&gt;" tags="Фон" id="lW8Ky7CH6mHDjnRsKa6J-401">
          <mxCell style="verticalAlign=middle;align=left;overflow=width;vsdxID=386;fillColor=none;gradientColor=none;shape=stencil(nZBLDoAgDERP0z3SIyjew0SURgSD+Lu9kMZoXLhwN9O+tukAlrNpJg1SzDH4QW/URgNYgZTkjA4UkwJUgGXng+6DX1zLfmoymdXo17xh5zmRJ6Q42BWCfc2oJfdAr+Yv+AP9Cb7OJ3H/2JG1HNGz/84klThPVCc=);strokeColor=none;points=[];labelBackgroundColor=none;rounded=0;html=1;whiteSpace=wrap;fontFamily=isocpeur;" parent="lW8Ky7CH6mHDjnRsKa6J-424" vertex="1">
            <mxGeometry x="2553.4244186046512" y="2237" width="68.60342717258263" height="20" as="geometry" />
          </mxCell>
        </UserObject>
        <UserObject label="&lt;div style=&quot;font-size: 1px&quot;&gt;&lt;p style=&quot;text-align:left;margin-left:0;margin-right:0;margin-top:0px;margin-bottom:0px;text-indent:0;vertical-align:middle;direction:ltr;&quot;&gt;&lt;font style=&quot;font-size: 14.11px; color: rgb(0, 0, 0); direction: ltr; letter-spacing: 0px; line-height: 120%; opacity: 1;&quot;&gt;&lt;i&gt;Разраб.&lt;br&gt;&lt;/i&gt;&lt;/font&gt;&lt;/p&gt;&lt;/div&gt;" tags="Фон" id="lW8Ky7CH6mHDjnRsKa6J-402">
          <mxCell style="verticalAlign=middle;align=left;overflow=width;vsdxID=387;fillColor=none;gradientColor=none;shape=stencil(nZBLDoAgDERP0z3SIyjew0SURgSD+Lu9kMZoXLhwN9O+tukAlrNpJg1SzDH4QW/URgNYgZTkjA4UkwJUgGXng+6DX1zLfmoymdXo17xh5zmRJ6Q42BWCfc2oJfdAr+Yv+AP9Cb7OJ3H/2JG1HNGz/84klThPVCc=);strokeColor=none;points=[];labelBackgroundColor=none;rounded=0;html=1;whiteSpace=wrap;fontFamily=isocpeur;" parent="lW8Ky7CH6mHDjnRsKa6J-424" vertex="1">
            <mxGeometry x="2553.4244186046512" y="2217" width="68.60342717258263" height="20" as="geometry" />
          </mxCell>
        </UserObject>
        <UserObject label="&lt;div style=&quot;font-size: 1px&quot;&gt;&lt;p style=&quot;text-align:left;margin-left:0;margin-right:0;margin-top:0px;margin-bottom:0px;text-indent:0;vertical-align:middle;direction:ltr;&quot;&gt;&lt;font style=&quot;font-size: 14.11px; color: rgb(0, 0, 0); direction: ltr; letter-spacing: 0px; line-height: 120%; opacity: 1;&quot;&gt;&lt;i&gt;Т.контр.&lt;br&gt;&lt;/i&gt;&lt;/font&gt;&lt;/p&gt;&lt;/div&gt;" tags="Фон" id="lW8Ky7CH6mHDjnRsKa6J-403">
          <mxCell style="verticalAlign=middle;align=left;overflow=width;vsdxID=388;fillColor=none;gradientColor=none;shape=stencil(nZBLDoAgDERP0z3SIyjew0SURgSD+Lu9kMZoXLhwN9O+tukAlrNpJg1SzDH4QW/URgNYgZTkjA4UkwJUgGXng+6DX1zLfmoymdXo17xh5zmRJ6Q42BWCfc2oJfdAr+Yv+AP9Cb7OJ3H/2JG1HNGz/84klThPVCc=);strokeColor=none;points=[];labelBackgroundColor=none;rounded=0;html=1;whiteSpace=wrap;fontFamily=isocpeur;" parent="lW8Ky7CH6mHDjnRsKa6J-424" vertex="1">
            <mxGeometry x="2553.4244186046512" y="2257" width="68.60342717258263" height="20" as="geometry" />
          </mxCell>
        </UserObject>
        <UserObject label="&lt;div style=&quot;font-size: 1px&quot;&gt;&lt;p style=&quot;text-align:left;margin-left:0;margin-right:0;margin-top:0px;margin-bottom:0px;text-indent:0;vertical-align:middle;direction:ltr;&quot;&gt;&lt;font style=&quot;font-size: 14.11px; color: rgb(0, 0, 0); direction: ltr; letter-spacing: 0px; line-height: 120%; opacity: 1;&quot;&gt;&lt;i&gt;Н.контр.&lt;br&gt;&lt;/i&gt;&lt;/font&gt;&lt;/p&gt;&lt;/div&gt;" tags="Фон" id="lW8Ky7CH6mHDjnRsKa6J-404">
          <mxCell style="verticalAlign=middle;align=left;overflow=width;vsdxID=389;fillColor=none;gradientColor=none;shape=stencil(nZBLDoAgDERP0z3SIyjew0SURgSD+Lu9kMZoXLhwN9O+tukAlrNpJg1SzDH4QW/URgNYgZTkjA4UkwJUgGXng+6DX1zLfmoymdXo17xh5zmRJ6Q42BWCfc2oJfdAr+Yv+AP9Cb7OJ3H/2JG1HNGz/84klThPVCc=);strokeColor=none;points=[];labelBackgroundColor=none;rounded=0;html=1;whiteSpace=wrap;fontFamily=isocpeur;" parent="lW8Ky7CH6mHDjnRsKa6J-424" vertex="1">
            <mxGeometry x="2553.4244186046512" y="2297" width="68.60342717258263" height="20" as="geometry" />
          </mxCell>
        </UserObject>
        <UserObject label="&lt;div style=&quot;font-size: 1px&quot;&gt;&lt;p style=&quot;text-align:left;margin-left:0;margin-right:0;margin-top:0px;margin-bottom:0px;text-indent:0;vertical-align:middle;direction:ltr;&quot;&gt;&lt;font style=&quot;font-size: 14.11px; color: rgb(0, 0, 0); direction: ltr; letter-spacing: 0px; line-height: 120%; opacity: 1;&quot;&gt;&lt;i&gt;Утв.&lt;br&gt;&lt;/i&gt;&lt;/font&gt;&lt;/p&gt;&lt;/div&gt;" tags="Фон" id="lW8Ky7CH6mHDjnRsKa6J-405">
          <mxCell style="verticalAlign=middle;align=left;overflow=width;vsdxID=390;fillColor=none;gradientColor=none;shape=stencil(nZBLDoAgDERP0z3SIyjew0SURgSD+Lu9kMZoXLhwN9O+tukAlrNpJg1SzDH4QW/URgNYgZTkjA4UkwJUgGXng+6DX1zLfmoymdXo17xh5zmRJ6Q42BWCfc2oJfdAr+Yv+AP9Cb7OJ3H/2JG1HNGz/84klThPVCc=);strokeColor=none;points=[];labelBackgroundColor=none;rounded=0;html=1;whiteSpace=wrap;fontFamily=isocpeur;" parent="lW8Ky7CH6mHDjnRsKa6J-424" vertex="1">
            <mxGeometry x="2553.4244186046512" y="2316" width="68.60342717258263" height="20" as="geometry" />
          </mxCell>
        </UserObject>
        <UserObject label="&lt;div style=&quot;font-size: 1px&quot;&gt;&lt;p style=&quot;text-align:left;margin-left:0;margin-right:0;margin-top:0px;margin-bottom:0px;text-indent:0;vertical-align:middle;direction:ltr;&quot;&gt;&lt;font style=&quot;font-size: 14.11px; color: rgb(0, 0, 0); direction: ltr; letter-spacing: 0px; line-height: 120%; opacity: 1;&quot;&gt;&lt;i&gt;Реценз.&lt;br&gt;&lt;/i&gt;&lt;/font&gt;&lt;/p&gt;&lt;/div&gt;" tags="Фон" id="lW8Ky7CH6mHDjnRsKa6J-406">
          <mxCell style="verticalAlign=middle;align=left;overflow=width;vsdxID=394;fillColor=none;gradientColor=none;shape=stencil(nZBLDoAgDERP0z3SIyjew0SURgSD+Lu9kMZoXLhwN9O+tukAlrNpJg1SzDH4QW/URgNYgZTkjA4UkwJUgGXng+6DX1zLfmoymdXo17xh5zmRJ6Q42BWCfc2oJfdAr+Yv+AP9Cb7OJ3H/2JG1HNGz/84klThPVCc=);strokeColor=none;points=[];labelBackgroundColor=none;rounded=0;html=1;whiteSpace=wrap;fontFamily=isocpeur;" parent="lW8Ky7CH6mHDjnRsKa6J-424" vertex="1">
            <mxGeometry x="2553.4244186046512" y="2276" width="70.62117503059976" height="20" as="geometry" />
          </mxCell>
        </UserObject>
        <UserObject label="&lt;div style=&quot;font-size: 1px&quot;&gt;&lt;font style=&quot;font-size: 14.11px; color: rgb(0, 0, 0); direction: ltr; letter-spacing: 0px; line-height: 120%; opacity: 1;&quot;&gt;&lt;i&gt;Лит.&lt;br&gt;&lt;/i&gt;&lt;/font&gt;&lt;/div&gt;" tags="Фон" id="lW8Ky7CH6mHDjnRsKa6J-407">
          <mxCell style="verticalAlign=middle;align=center;overflow=width;vsdxID=395;fillColor=none;gradientColor=none;shape=stencil(nZBLDoAgDERP0z3SIyjew0SURgSD+Lu9kMZoXLhwN9O+tukAlrNpJg1SzDH4QW/URgNYgZTkjA4UkwJUgGXng+6DX1zLfmoymdXo17xh5zmRJ6Q42BWCfc2oJfdAr+Yv+AP9Cb7OJ3H/2JG1HNGz/84klThPVCc=);strokeColor=none;points=[];labelBackgroundColor=none;rounded=0;html=1;whiteSpace=wrap;fontFamily=isocpeur;" parent="lW8Ky7CH6mHDjnRsKa6J-424" vertex="1">
            <mxGeometry x="3012.497552019584" y="2171" width="215.89902080783355" height="28" as="geometry" />
          </mxCell>
        </UserObject>
        <UserObject label="&lt;div style=&quot;font-size: 1px&quot;&gt;&lt;p style=&quot;text-align:center;margin-left:0;margin-right:0;margin-top:0px;margin-bottom:0px;text-indent:0;vertical-align:middle;direction:ltr;&quot;&gt;&lt;font style=&quot;font-size: 14.11px; color: rgb(0, 0, 0); direction: ltr; letter-spacing: 0px; line-height: 120%; opacity: 1;&quot;&gt;&lt;i&gt;Лист 1&lt;/i&gt;&lt;/font&gt;&lt;font style=&quot;font-size: 14.11px; color: rgb(0, 0, 0); direction: ltr; letter-spacing: 0px; line-height: 120%; opacity: 1;&quot;&gt;&lt;i&gt;&lt;br&gt;&lt;/i&gt;&lt;/font&gt;&lt;/p&gt;&lt;/div&gt;" tags="Фон" id="lW8Ky7CH6mHDjnRsKa6J-408">
          <mxCell style="verticalAlign=middle;align=center;overflow=width;vsdxID=396;fillColor=none;gradientColor=none;shape=stencil(nZBLDoAgDERP0z3SIyjew0SURgSD+Lu9kMZoXLhwN9O+tukAlrNpJg1SzDH4QW/URgNYgZTkjA4UkwJUgGXng+6DX1zLfmoymdXo17xh5zmRJ6Q42BWCfc2oJfdAr+Yv+AP9Cb7OJ3H/2JG1HNGz/84klThPVCc=);strokeColor=none;points=[];labelBackgroundColor=none;rounded=0;html=1;whiteSpace=wrap;fontFamily=isocpeur;" parent="lW8Ky7CH6mHDjnRsKa6J-424" vertex="1">
            <mxGeometry x="3095.2252141982867" y="2255" width="80.70991432068544" height="20" as="geometry" />
          </mxCell>
        </UserObject>
        <UserObject label="&lt;div style=&quot;font-size: 1px&quot;&gt;&lt;p style=&quot;text-align:center;margin-left:0;margin-right:0;margin-top:0px;margin-bottom:0px;text-indent:0;vertical-align:middle;direction:ltr;&quot;&gt;&lt;font style=&quot;font-size: 14.11px; color: rgb(0, 0, 0); direction: ltr; letter-spacing: 0px; line-height: 120%; opacity: 1;&quot;&gt;&lt;i&gt;Листов 1&lt;/i&gt;&lt;/font&gt;&lt;font style=&quot;font-size: 14.11px; color: rgb(0, 0, 0); direction: ltr; letter-spacing: 0px; line-height: 120%; opacity: 1;&quot;&gt;&lt;i&gt;&lt;br&gt;&lt;/i&gt;&lt;/font&gt;&lt;/p&gt;&lt;/div&gt;" tags="Фон" id="lW8Ky7CH6mHDjnRsKa6J-409">
          <mxCell style="verticalAlign=middle;align=center;overflow=width;vsdxID=397;fillColor=none;gradientColor=none;shape=stencil(nZBLDoAgDERP0z3SIyjew0SURgSD+Lu9kMZoXLhwN9O+tukAlrNpJg1SzDH4QW/URgNYgZTkjA4UkwJUgGXng+6DX1zLfmoymdXo17xh5zmRJ6Q42BWCfc2oJfdAr+Yv+AP9Cb7OJ3H/2JG1HNGz/84klThPVCc=);strokeColor=none;points=[];labelBackgroundColor=none;rounded=0;html=1;whiteSpace=wrap;fontFamily=isocpeur;" parent="lW8Ky7CH6mHDjnRsKa6J-424" vertex="1">
            <mxGeometry x="3175.935128518972" y="2255" width="117.02937576499389" height="20" as="geometry" />
          </mxCell>
        </UserObject>
        <UserObject label="&lt;div style=&quot;font-size: 1px&quot;&gt;&lt;font style=&quot;font-size: 14.11px; color: rgb(0, 0, 0); direction: ltr; letter-spacing: 0px; line-height: 120%; opacity: 1;&quot;&gt;&lt;i&gt;Масса&lt;br&gt;&lt;/i&gt;&lt;/font&gt;&lt;/div&gt;" tags="Фон" id="lW8Ky7CH6mHDjnRsKa6J-410">
          <mxCell style="verticalAlign=middle;align=center;overflow=width;vsdxID=398;fillColor=none;gradientColor=none;shape=stencil(nZBLDoAgDERP0z3SIyjew0SURgSD+Lu9kMZoXLhwN9O+tukAlrNpJg1SzDH4QW/URgNYgZTkjA4UkwJUgGXng+6DX1zLfmoymdXo17xh5zmRJ6Q42BWCfc2oJfdAr+Yv+AP9Cb7OJ3H/2JG1HNGz/84klThPVCc=);strokeColor=none;points=[];labelBackgroundColor=none;rounded=0;html=1;whiteSpace=wrap;fontFamily=isocpeur;" parent="lW8Ky7CH6mHDjnRsKa6J-424" vertex="1">
            <mxGeometry x="3155.7576499388006" y="2171" width="66.58567931456548" height="28" as="geometry" />
          </mxCell>
        </UserObject>
        <UserObject label="&lt;div style=&quot;font-size: 1px&quot;&gt;&lt;font style=&quot;font-size: 14.11px; color: rgb(0, 0, 0); direction: ltr; letter-spacing: 0px; line-height: 120%; opacity: 1;&quot;&gt;&lt;i&gt;Масштаб&lt;br&gt;&lt;/i&gt;&lt;/font&gt;&lt;/div&gt;" tags="Фон" id="lW8Ky7CH6mHDjnRsKa6J-411">
          <mxCell style="verticalAlign=middle;align=center;overflow=width;vsdxID=399;fillColor=none;gradientColor=none;shape=stencil(nZBLDoAgDERP0z3SIyjew0SURgSD+Lu9kMZoXLhwN9O+tukAlrNpJg1SzDH4QW/URgNYgZTkjA4UkwJUgGXng+6DX1zLfmoymdXo17xh5zmRJ6Q42BWCfc2oJfdAr+Yv+AP9Cb7OJ3H/2JG1HNGz/84klThPVCc=);strokeColor=none;points=[];labelBackgroundColor=none;rounded=0;html=1;whiteSpace=wrap;fontFamily=isocpeur;" parent="lW8Ky7CH6mHDjnRsKa6J-424" vertex="1">
            <mxGeometry x="3221.3344553243574" y="2171" width="74.65667074663403" height="28" as="geometry" />
          </mxCell>
        </UserObject>
        <UserObject label="&lt;div style=&quot;font-size: 1px&quot;&gt;&lt;font style=&quot;font-size: 14.11px; color: rgb(0, 0, 0); direction: ltr; letter-spacing: 0px; line-height: 120%; opacity: 1;&quot;&gt;&lt;i&gt;Т&lt;br&gt;&lt;/i&gt;&lt;/font&gt;&lt;/div&gt;" tags="Фон" id="lW8Ky7CH6mHDjnRsKa6J-412">
          <mxCell style="verticalAlign=middle;align=center;overflow=width;vsdxID=400;fillColor=none;gradientColor=none;shape=stencil(nZBLDoAgDERP0z3SIyjew0SURgSD+Lu9kMZoXLhwN9O+tukAlrNpJg1SzDH4QW/URgNYgZTkjA4UkwJUgGXng+6DX1zLfmoymdXo17xh5zmRJ6Q42BWCfc2oJfdAr+Yv+AP9Cb7OJ3H/2JG1HNGz/84klThPVCc=);strokeColor=none;spacingTop=-1;spacingBottom=-1;spacingLeft=-1;spacingRight=-1;points=[];labelBackgroundColor=none;rounded=0;html=1;whiteSpace=wrap;fontFamily=isocpeur;" parent="lW8Ky7CH6mHDjnRsKa6J-424" vertex="1">
            <mxGeometry x="3113.384944920441" y="2194" width="21.186352509179926" height="59" as="geometry" />
          </mxCell>
        </UserObject>
        <UserObject label="&lt;div style=&quot;font-size: 1px&quot;&gt;&lt;p style=&quot;text-align:center;margin-left:0;margin-right:0;margin-top:0px;margin-bottom:0px;text-indent:0;vertical-align:middle;direction:ltr;&quot;&gt;&lt;font style=&quot;font-size: 28.08px; color: rgb(0, 0, 0); direction: ltr; letter-spacing: 0px; line-height: 120%; opacity: 1;&quot;&gt;&lt;i&gt;ГУИР 502900 .004 ПД&lt;/i&gt;&lt;/font&gt;&lt;font style=&quot;font-size: 28.08px; color: rgb(0, 0, 0); direction: ltr; letter-spacing: 0px; line-height: 120%; opacity: 1;&quot;&gt;&lt;i&gt;&lt;br&gt;&lt;/i&gt;&lt;/font&gt;&lt;/p&gt;&lt;/div&gt;" tags="Фон" id="lW8Ky7CH6mHDjnRsKa6J-413">
          <mxCell style="verticalAlign=middle;align=center;overflow=width;vsdxID=631;rotation=180;fillColor=none;gradientColor=none;shape=stencil(nZBLDoAgDERP0z3SIyjew0SURgSD+Lu9kMZoXLhwN9O+tukAlrNpJg1SzDH4QW/URgNYgZTkjA4UkwJUgGXng+6DX1zLfmoymdXo17xh5zmRJ6Q42BWCfc2oJfdAr+Yv+AP9Cb7OJ3H/2JG1HNGz/84klThPVCc=);strokeColor=none;spacingTop=-3;spacingBottom=-3;spacingLeft=-3;spacingRight=-3;points=[];labelBackgroundColor=none;rounded=0;html=1;whiteSpace=wrap;fontFamily=isocpeur;" parent="lW8Ky7CH6mHDjnRsKa6J-424" vertex="1">
            <mxGeometry y="2" width="282.48470012239903" height="56" as="geometry" />
          </mxCell>
        </UserObject>
        <UserObject label="&lt;div style=&quot;font-size: 1px&quot;&gt;&lt;p style=&quot;text-align:left;margin-left:0;margin-right:0;margin-top:0px;margin-bottom:0px;text-indent:0;vertical-align:middle;direction:ltr;&quot;&gt;&lt;font style=&quot;font-size: 16.93px; color: rgb(0, 0, 0); direction: ltr; letter-spacing: 0px; line-height: 120%; opacity: 1;&quot;&gt;&lt;i&gt;Давыдович&lt;br&gt;&lt;/i&gt;&lt;/font&gt;&lt;/p&gt;&lt;/div&gt;" tags="Фон" id="lW8Ky7CH6mHDjnRsKa6J-414">
          <mxCell style="verticalAlign=middle;align=left;overflow=width;vsdxID=636;fillColor=none;gradientColor=none;shape=stencil(nZBLDoAgDERP0z3SIyjew0SURgSD+Lu9kMZoXLhwN9O+tukAlrNpJg1SzDH4QW/URgNYgZTkjA4UkwJUgGXng+6DX1zLfmoymdXo17xh5zmRJ6Q42BWCfc2oJfdAr+Yv+AP9Cb7OJ3H/2JG1HNGz/84klThPVCc=);strokeColor=none;spacingTop=-2;spacingBottom=-2;spacingLeft=-2;spacingRight=-2;points=[];labelBackgroundColor=none;rounded=0;html=1;whiteSpace=wrap;fontFamily=isocpeur;" parent="lW8Ky7CH6mHDjnRsKa6J-424" vertex="1">
            <mxGeometry x="2623.0722154222767" y="2295" width="90.79865361077111" height="19" as="geometry" />
          </mxCell>
        </UserObject>
        <UserObject label="&lt;div style=&quot;font-size: 1px&quot;&gt;&lt;p style=&quot;text-align:left;margin-left:0;margin-right:0;margin-top:0px;margin-bottom:0px;text-indent:0;vertical-align:middle;direction:ltr;&quot;&gt;&lt;font style=&quot;font-size: 16.93px; color: rgb(0, 0, 0); direction: ltr; letter-spacing: 0px; line-height: 120%; opacity: 1;&quot;&gt;&lt;i&gt;Казак&lt;br&gt;&lt;/i&gt;&lt;/font&gt;&lt;/p&gt;&lt;/div&gt;" tags="Фон" id="lW8Ky7CH6mHDjnRsKa6J-415">
          <mxCell style="verticalAlign=middle;align=left;overflow=width;vsdxID=637;fillColor=none;gradientColor=none;shape=stencil(nZBLDoAgDERP0z3SIyjew0SURgSD+Lu9kMZoXLhwN9O+tukAlrNpJg1SzDH4QW/URgNYgZTkjA4UkwJUgGXng+6DX1zLfmoymdXo17xh5zmRJ6Q42BWCfc2oJfdAr+Yv+AP9Cb7OJ3H/2JG1HNGz/84klThPVCc=);strokeColor=none;spacingTop=-2;spacingBottom=-2;spacingLeft=-2;spacingRight=-2;points=[];labelBackgroundColor=none;rounded=0;html=1;whiteSpace=wrap;fontFamily=isocpeur;" parent="lW8Ky7CH6mHDjnRsKa6J-424" vertex="1">
            <mxGeometry x="2623.0722154222767" y="2315" width="88.78090575275398" height="18" as="geometry" />
          </mxCell>
        </UserObject>
        <UserObject label="&lt;div style=&quot;font-size: 1px&quot;&gt;&lt;p style=&quot;text-align:center;margin-left:0;margin-right:0;margin-top:0px;margin-bottom:0px;text-indent:0;vertical-align:middle;direction:ltr;&quot;&gt;&lt;font style=&quot;font-size: 16.93px; color: rgb(0, 0, 0); direction: ltr; letter-spacing: 0px; line-height: 120%; opacity: 1;&quot;&gt;&lt;i&gt;Диаграмма вариантов использования&lt;/i&gt;&lt;/font&gt;&lt;font style=&quot;font-size: 19.76px; color: rgb(0, 0, 0); direction: ltr; letter-spacing: 0px; line-height: 120%; opacity: 1;&quot;&gt;&lt;i&gt;&lt;br&gt;&lt;/i&gt;&lt;/font&gt;&lt;/p&gt;&lt;/div&gt;" tags="Фон" id="lW8Ky7CH6mHDjnRsKa6J-416">
          <mxCell style="verticalAlign=middle;align=center;overflow=width;vsdxID=639;fillColor=none;gradientColor=none;shape=stencil(nZBLDoAgDERP0z3SIyjew0SURgSD+Lu9kMZoXLhwN9O+tukAlrNpJg1SzDH4QW/URgNYgZTkjA4UkwJUgGXng+6DX1zLfmoymdXo17xh5zmRJ6Q42BWCfc2oJfdAr+Yv+AP9Cb7OJ3H/2JG1HNGz/84klThPVCc=);strokeColor=none;points=[];labelBackgroundColor=none;rounded=0;html=1;whiteSpace=wrap;fontFamily=isocpeur;" parent="lW8Ky7CH6mHDjnRsKa6J-424" vertex="1">
            <mxGeometry x="2811.731640146879" y="2275" width="282.48470012239903" height="60" as="geometry" />
          </mxCell>
        </UserObject>
        <mxCell id="lW8Ky7CH6mHDjnRsKa6J-417" style="fontFamily=isocpeur;" parent="lW8Ky7CH6mHDjnRsKa6J-424" vertex="1">
          <mxGeometry x="2550.43329253366" y="2276" as="geometry" />
        </mxCell>
        <mxCell id="lW8Ky7CH6mHDjnRsKa6J-418" style="fontFamily=isocpeur;" parent="lW8Ky7CH6mHDjnRsKa6J-424" vertex="1">
          <mxGeometry x="3094.216340269278" y="2276" as="geometry" />
        </mxCell>
        <UserObject label="" tags="Фон" id="lW8Ky7CH6mHDjnRsKa6J-419">
          <mxCell style="vsdxID=7;edgeStyle=none;startArrow=none;endArrow=none;startSize=5;endSize=5;strokeWidth=3;strokeColor=#000000;spacingTop=0;spacingBottom=0;spacingLeft=0;spacingRight=0;verticalAlign=middle;html=1;labelBackgroundColor=none;rounded=0;fontFamily=isocpeur;" parent="lW8Ky7CH6mHDjnRsKa6J-424" source="lW8Ky7CH6mHDjnRsKa6J-417" target="lW8Ky7CH6mHDjnRsKa6J-418" edge="1">
            <mxGeometry relative="1" as="geometry">
              <Array as="points" />
            </mxGeometry>
          </mxCell>
        </UserObject>
        <mxCell id="lW8Ky7CH6mHDjnRsKa6J-420" value="&lt;div style=&quot;font-size: 1px&quot;&gt;&lt;/div&gt;" style="text;vsdxID=7;edgeStyle=none;startArrow=none;endArrow=none;startSize=5;endSize=5;strokeWidth=3;strokeColor=none;spacingTop=0;spacingBottom=0;spacingLeft=0;spacingRight=0;verticalAlign=middle;html=1;labelBackgroundColor=none;rounded=0;align=center;overflow=width;fillColor=none;gradientColor=none;whiteSpace=wrap;;html=1;;rotation=0.06640675668381846;fontFamily=isocpeur;" parent="lW8Ky7CH6mHDjnRsKa6J-419" vertex="1">
          <mxGeometry width="539.25" height="1" relative="1" as="geometry">
            <mxPoint x="-270.625" y="-0.5" as="offset" />
          </mxGeometry>
        </mxCell>
        <mxCell id="lW8Ky7CH6mHDjnRsKa6J-421" style="fontFamily=isocpeur;" parent="lW8Ky7CH6mHDjnRsKa6J-424" vertex="1">
          <mxGeometry x="3095.2252141982867" y="2276" as="geometry" />
        </mxCell>
        <UserObject label="&lt;div style=&quot;font-size: 1px&quot;&gt;&lt;/div&gt;" tags="Фон" id="lW8Ky7CH6mHDjnRsKa6J-422">
          <mxCell style="vsdxID=248;edgeStyle=none;startArrow=none;endArrow=none;startSize=5;endSize=5;strokeWidth=3;strokeColor=#000000;spacingTop=0;spacingBottom=0;spacingLeft=0;spacingRight=0;verticalAlign=middle;html=1;labelBackgroundColor=none;rounded=0;align=center;entryX=1;entryY=0.016666666666666666;entryDx=0;entryDy=0;entryPerimeter=0;fontFamily=isocpeur;" parent="lW8Ky7CH6mHDjnRsKa6J-424" source="lW8Ky7CH6mHDjnRsKa6J-421" target="lW8Ky7CH6mHDjnRsKa6J-395" edge="1">
            <mxGeometry relative="1" as="geometry">
              <mxPoint as="offset" />
              <Array as="points" />
            </mxGeometry>
          </mxCell>
        </UserObject>
        <UserObject label="&lt;div style=&quot;font-size: 1px&quot;&gt;&lt;p style=&quot;text-align:left;margin-left:0;margin-right:0;margin-top:0px;margin-bottom:0px;text-indent:0;vertical-align:middle;direction:ltr;&quot;&gt;&lt;font style=&quot;font-size: 16.93px; color: rgb(0, 0, 0); direction: ltr; letter-spacing: 0px; line-height: 120%; opacity: 1;&quot;&gt;&lt;i&gt;Сирко&lt;br&gt;&lt;/i&gt;&lt;/font&gt;&lt;/p&gt;&lt;p style=&quot;text-align:left;margin-left:0;margin-right:0;margin-top:0px;margin-bottom:0px;text-indent:0;vertical-align:middle;direction:ltr;&quot;&gt;&lt;font style=&quot;font-size: 16.93px; color: rgb(0, 0, 0); direction: ltr; letter-spacing: 0px; line-height: 120%; opacity: 1;&quot;&gt;&lt;i&gt;&lt;br&gt;&lt;/i&gt;&lt;/font&gt;&lt;/p&gt;&lt;/div&gt;" tags="Фон" id="lW8Ky7CH6mHDjnRsKa6J-425">
          <mxCell style="verticalAlign=middle;align=left;overflow=width;vsdxID=636;fillColor=none;gradientColor=none;shape=stencil(nZBLDoAgDERP0z3SIyjew0SURgSD+Lu9kMZoXLhwN9O+tukAlrNpJg1SzDH4QW/URgNYgZTkjA4UkwJUgGXng+6DX1zLfmoymdXo17xh5zmRJ6Q42BWCfc2oJfdAr+Yv+AP9Cb7OJ3H/2JG1HNGz/84klThPVCc=);strokeColor=none;spacingTop=-2;spacingBottom=-2;spacingLeft=-2;spacingRight=-2;points=[];labelBackgroundColor=none;rounded=0;html=1;whiteSpace=wrap;fontFamily=isocpeur;" parent="lW8Ky7CH6mHDjnRsKa6J-424" vertex="1">
            <mxGeometry x="2623.0722154222767" y="2217" width="90.79865361077111" height="19" as="geometry" />
          </mxCell>
        </UserObject>
        <mxCell id="zAk3C4m2meEs_pBk8pqH-0" value="&lt;font style=&quot;font-size: 33px;&quot;&gt;Пользователь&lt;/font&gt;" style="shape=umlActor;verticalLabelPosition=bottom;verticalAlign=top;html=1;outlineConnect=0;fontSize=33;fontFamily=isocpeur;" parent="lW8Ky7CH6mHDjnRsKa6J-424" vertex="1">
          <mxGeometry x="549.1705426356589" y="721.951612903226" width="151.4418604651162" height="207.77419354838707" as="geometry" />
        </mxCell>
        <mxCell id="zAk3C4m2meEs_pBk8pqH-1" value="&lt;font style=&quot;font-size: 33px;&quot;&gt;Контрибьютор&lt;/font&gt;" style="shape=umlActor;verticalLabelPosition=bottom;verticalAlign=top;html=1;outlineConnect=0;fontSize=33;fontFamily=isocpeur;" parent="lW8Ky7CH6mHDjnRsKa6J-424" vertex="1">
          <mxGeometry x="549.1705426356589" y="1587.6774193548388" width="151.4418604651162" height="207.77419354838707" as="geometry" />
        </mxCell>
        <mxCell id="zAk3C4m2meEs_pBk8pqH-2" value="" style="endArrow=block;html=1;rounded=0;endFill=0;fontSize=12;strokeWidth=4;fontFamily=isocpeur;" parent="lW8Ky7CH6mHDjnRsKa6J-424" edge="1">
          <mxGeometry width="50" height="50" relative="1" as="geometry">
            <mxPoint x="624.8914728682171" y="1553.0483870967737" as="sourcePoint" />
            <mxPoint x="623.6799379844961" y="998.983870967742" as="targetPoint" />
          </mxGeometry>
        </mxCell>
        <mxCell id="zAk3C4m2meEs_pBk8pqH-3" value="&lt;font style=&quot;font-size: 33px;&quot;&gt;Симулировать действие над элементом&lt;/font&gt;" style="ellipse;whiteSpace=wrap;html=1;fontSize=33;fontFamily=isocpeur;" parent="lW8Ky7CH6mHDjnRsKa6J-424" vertex="1">
          <mxGeometry x="1003.4961240310076" y="791.2096774193549" width="353.3643410852714" height="138.51612903225802" as="geometry" />
        </mxCell>
        <mxCell id="zAk3C4m2meEs_pBk8pqH-4" value="Получить объект элемента по заданному пути XPath" style="ellipse;whiteSpace=wrap;html=1;fontSize=33;fontFamily=isocpeur;" parent="lW8Ky7CH6mHDjnRsKa6J-424" vertex="1">
          <mxGeometry x="1710.22480620155" y="773.8951612903223" width="454.3255813953487" height="173.1451612903226" as="geometry" />
        </mxCell>
        <mxCell id="zAk3C4m2meEs_pBk8pqH-5" value="Заполнить путь XPath" style="ellipse;whiteSpace=wrap;html=1;fontSize=33;fontFamily=isocpeur;" parent="lW8Ky7CH6mHDjnRsKa6J-424" vertex="1">
          <mxGeometry x="2517.914728682171" y="782.5524193548389" width="353.3643410852714" height="155.83064516129028" as="geometry" />
        </mxCell>
        <mxCell id="zAk3C4m2meEs_pBk8pqH-6" value="Выбрать действие для симуляции" style="ellipse;whiteSpace=wrap;html=1;strokeColor=default;align=center;verticalAlign=middle;fontFamily=isocpeur;fontSize=33;fontColor=default;fillColor=default;" parent="lW8Ky7CH6mHDjnRsKa6J-424" vertex="1">
          <mxGeometry x="915.1550387596899" y="548.8064516129032" width="328.12403100775185" height="138.51612903225802" as="geometry" />
        </mxCell>
        <mxCell id="zAk3C4m2meEs_pBk8pqH-7" value="" style="endArrow=classic;html=1;rounded=0;fontFamily=isocpeur;fontSize=12;fontColor=default;dashed=1;exitX=1;exitY=1;exitDx=0;exitDy=0;entryX=0.015;entryY=0.349;entryDx=0;entryDy=0;entryPerimeter=0;strokeWidth=4;" parent="lW8Ky7CH6mHDjnRsKa6J-424" source="zAk3C4m2meEs_pBk8pqH-9" target="zAk3C4m2meEs_pBk8pqH-6" edge="1">
          <mxGeometry width="50" height="50" relative="1" as="geometry">
            <mxPoint x="1457.8217054263564" y="618.0645161290321" as="sourcePoint" />
            <mxPoint x="2164.550387596899" y="583.4354838709677" as="targetPoint" />
          </mxGeometry>
        </mxCell>
        <mxCell id="zAk3C4m2meEs_pBk8pqH-8" value="&quot;Extend&quot;" style="edgeLabel;html=1;align=center;verticalAlign=bottom;resizable=0;points=[];strokeColor=default;fontFamily=isocpeur;fontSize=33;fontColor=default;fillColor=default;labelPosition=center;verticalLabelPosition=top;" parent="zAk3C4m2meEs_pBk8pqH-7" vertex="1" connectable="0">
          <mxGeometry relative="1" as="geometry">
            <mxPoint x="-93" y="50" as="offset" />
          </mxGeometry>
        </mxCell>
        <mxCell id="zAk3C4m2meEs_pBk8pqH-9" value="Кликнуть" style="ellipse;whiteSpace=wrap;html=1;strokeColor=default;align=center;verticalAlign=middle;fontFamily=isocpeur;fontSize=33;fontColor=default;fillColor=default;" parent="lW8Ky7CH6mHDjnRsKa6J-424" vertex="1">
          <mxGeometry x="359" y="401" width="299.78" height="99.89" as="geometry" />
        </mxCell>
        <mxCell id="zAk3C4m2meEs_pBk8pqH-10" value="Подсветить" style="ellipse;whiteSpace=wrap;html=1;strokeColor=default;align=center;verticalAlign=middle;fontFamily=isocpeur;fontSize=33;fontColor=default;fillColor=default;" parent="lW8Ky7CH6mHDjnRsKa6J-424" vertex="1">
          <mxGeometry x="488" y="248" width="293.95" height="109.66" as="geometry" />
        </mxCell>
        <mxCell id="zAk3C4m2meEs_pBk8pqH-11" value="Получить текст" style="ellipse;whiteSpace=wrap;html=1;strokeColor=default;align=center;verticalAlign=middle;fontFamily=isocpeur;fontSize=33;fontColor=default;fillColor=default;" parent="lW8Ky7CH6mHDjnRsKa6J-424" vertex="1">
          <mxGeometry x="678" y="98.63" width="300.57" height="119.15" as="geometry" />
        </mxCell>
        <mxCell id="zAk3C4m2meEs_pBk8pqH-12" value="Прокрутить" style="ellipse;whiteSpace=wrap;html=1;strokeColor=default;align=center;verticalAlign=middle;fontFamily=isocpeur;fontSize=33;fontColor=default;fillColor=default;" parent="lW8Ky7CH6mHDjnRsKa6J-424" vertex="1">
          <mxGeometry x="1016.12" y="55" width="281.88" height="112.89" as="geometry" />
        </mxCell>
        <mxCell id="zAk3C4m2meEs_pBk8pqH-13" value="Ожидать состояние" style="ellipse;whiteSpace=wrap;html=1;strokeColor=default;align=center;verticalAlign=middle;fontFamily=isocpeur;fontSize=33;fontColor=default;fillColor=default;" parent="lW8Ky7CH6mHDjnRsKa6J-424" vertex="1">
          <mxGeometry x="1356.86" y="90" width="281.14" height="112.52" as="geometry" />
        </mxCell>
        <mxCell id="zAk3C4m2meEs_pBk8pqH-14" value="Навести мышь" style="ellipse;whiteSpace=wrap;html=1;strokeColor=default;align=center;verticalAlign=middle;fontFamily=isocpeur;fontSize=33;fontColor=default;fillColor=default;" parent="lW8Ky7CH6mHDjnRsKa6J-424" vertex="1">
          <mxGeometry x="1571.4" y="202.52" width="294.6" height="112.48" as="geometry" />
        </mxCell>
        <mxCell id="zAk3C4m2meEs_pBk8pqH-15" value="Удалить" style="ellipse;whiteSpace=wrap;html=1;strokeColor=default;align=center;verticalAlign=middle;fontFamily=isocpeur;fontSize=33;fontColor=default;fillColor=default;" parent="lW8Ky7CH6mHDjnRsKa6J-424" vertex="1">
          <mxGeometry x="1725.37" y="341.03" width="285.63" height="123.97" as="geometry" />
        </mxCell>
        <mxCell id="zAk3C4m2meEs_pBk8pqH-16" value="" style="endArrow=classic;html=1;rounded=0;fontFamily=isocpeur;fontSize=12;fontColor=default;dashed=1;exitX=1;exitY=1;exitDx=0;exitDy=0;entryX=0;entryY=0;entryDx=0;entryDy=0;strokeWidth=4;" parent="lW8Ky7CH6mHDjnRsKa6J-424" source="zAk3C4m2meEs_pBk8pqH-10" target="zAk3C4m2meEs_pBk8pqH-6" edge="1">
          <mxGeometry width="50" height="50" relative="1" as="geometry">
            <mxPoint x="902.5348837209302" y="379.12419354838715" as="sourcePoint" />
            <mxPoint x="1114.553488372093" y="479.54838709677415" as="targetPoint" />
          </mxGeometry>
        </mxCell>
        <mxCell id="zAk3C4m2meEs_pBk8pqH-17" value="&quot;Extend&quot;" style="edgeLabel;html=1;align=center;verticalAlign=bottom;resizable=0;points=[];strokeColor=default;fontFamily=isocpeur;fontSize=33;fontColor=default;fillColor=default;labelPosition=center;verticalLabelPosition=top;" parent="zAk3C4m2meEs_pBk8pqH-16" vertex="1" connectable="0">
          <mxGeometry relative="1" as="geometry">
            <mxPoint x="-95" y="16" as="offset" />
          </mxGeometry>
        </mxCell>
        <mxCell id="zAk3C4m2meEs_pBk8pqH-18" value="" style="endArrow=classic;html=1;rounded=0;fontFamily=isocpeur;fontSize=12;fontColor=default;dashed=1;entryX=0.381;entryY=0.021;entryDx=0;entryDy=0;entryPerimeter=0;strokeWidth=4;" parent="lW8Ky7CH6mHDjnRsKa6J-424" source="zAk3C4m2meEs_pBk8pqH-11" target="zAk3C4m2meEs_pBk8pqH-6" edge="1">
          <mxGeometry width="50" height="50" relative="1" as="geometry">
            <mxPoint x="1006.0201550387595" y="306.4032258064516" as="sourcePoint" />
            <mxPoint x="1142.3178294573643" y="528.0290322580645" as="targetPoint" />
          </mxGeometry>
        </mxCell>
        <mxCell id="zAk3C4m2meEs_pBk8pqH-19" value="&quot;Extend&quot;" style="edgeLabel;html=1;align=center;verticalAlign=bottom;resizable=0;points=[];strokeColor=default;fontFamily=isocpeur;fontSize=33;fontColor=default;fillColor=default;labelPosition=center;verticalLabelPosition=top;" parent="zAk3C4m2meEs_pBk8pqH-18" vertex="1" connectable="0">
          <mxGeometry relative="1" as="geometry">
            <mxPoint x="-97" y="-15" as="offset" />
          </mxGeometry>
        </mxCell>
        <mxCell id="zAk3C4m2meEs_pBk8pqH-20" value="" style="endArrow=classic;html=1;rounded=0;fontFamily=isocpeur;fontSize=12;fontColor=default;dashed=1;exitX=0.5;exitY=1;exitDx=0;exitDy=0;entryX=0.618;entryY=0.006;entryDx=0;entryDy=0;entryPerimeter=0;strokeWidth=4;" parent="lW8Ky7CH6mHDjnRsKa6J-424" source="zAk3C4m2meEs_pBk8pqH-12" target="zAk3C4m2meEs_pBk8pqH-6" edge="1">
          <mxGeometry width="50" height="50" relative="1" as="geometry">
            <mxPoint x="1255.8992248062013" y="237.1451612903226" as="sourcePoint" />
            <mxPoint x="1311.427906976744" y="548.8064516129032" as="targetPoint" />
          </mxGeometry>
        </mxCell>
        <mxCell id="zAk3C4m2meEs_pBk8pqH-21" value="&quot;Extend&quot;" style="edgeLabel;html=1;align=center;verticalAlign=bottom;resizable=0;points=[];strokeColor=default;fontFamily=isocpeur;fontSize=33;fontColor=default;fillColor=default;labelPosition=center;verticalLabelPosition=top;" parent="zAk3C4m2meEs_pBk8pqH-20" vertex="1" connectable="0">
          <mxGeometry relative="1" as="geometry">
            <mxPoint x="-65" y="-41" as="offset" />
          </mxGeometry>
        </mxCell>
        <mxCell id="zAk3C4m2meEs_pBk8pqH-22" value="" style="endArrow=classic;html=1;rounded=0;fontFamily=isocpeur;fontSize=12;fontColor=default;dashed=1;entryX=0.799;entryY=0.093;entryDx=0;entryDy=0;entryPerimeter=0;strokeWidth=4;" parent="lW8Ky7CH6mHDjnRsKa6J-424" source="zAk3C4m2meEs_pBk8pqH-13" target="zAk3C4m2meEs_pBk8pqH-6" edge="1">
          <mxGeometry width="50" height="50" relative="1" as="geometry">
            <mxPoint x="1388.410852713178" y="250.99677419354842" as="sourcePoint" />
            <mxPoint x="1262.2093023255811" y="604.2129032258065" as="targetPoint" />
          </mxGeometry>
        </mxCell>
        <mxCell id="zAk3C4m2meEs_pBk8pqH-23" value="&quot;Extend&quot;" style="edgeLabel;html=1;align=center;verticalAlign=bottom;resizable=0;points=[];strokeColor=default;fontFamily=isocpeur;fontSize=33;fontColor=default;fillColor=default;labelPosition=center;verticalLabelPosition=top;" parent="zAk3C4m2meEs_pBk8pqH-22" vertex="1" connectable="0">
          <mxGeometry relative="1" as="geometry">
            <mxPoint x="-32" y="-51" as="offset" />
          </mxGeometry>
        </mxCell>
        <mxCell id="zAk3C4m2meEs_pBk8pqH-24" value="" style="endArrow=classic;html=1;rounded=0;fontFamily=isocpeur;fontSize=12;fontColor=default;dashed=1;exitX=0;exitY=1;exitDx=0;exitDy=0;entryX=0.922;entryY=0.207;entryDx=0;entryDy=0;entryPerimeter=0;strokeWidth=4;" parent="lW8Ky7CH6mHDjnRsKa6J-424" source="zAk3C4m2meEs_pBk8pqH-14" target="zAk3C4m2meEs_pBk8pqH-6" edge="1">
          <mxGeometry width="50" height="50" relative="1" as="geometry">
            <mxPoint x="1442.6775193798449" y="223.29354838709673" as="sourcePoint" />
            <mxPoint x="1225.6108527131782" y="597.2870967741936" as="targetPoint" />
          </mxGeometry>
        </mxCell>
        <mxCell id="zAk3C4m2meEs_pBk8pqH-25" value="&quot;Extend&quot;" style="edgeLabel;html=1;align=center;verticalAlign=bottom;resizable=0;points=[];strokeColor=default;fontFamily=isocpeur;fontSize=33;fontColor=default;fillColor=default;labelPosition=center;verticalLabelPosition=top;" parent="zAk3C4m2meEs_pBk8pqH-24" vertex="1" connectable="0">
          <mxGeometry relative="1" as="geometry">
            <mxPoint x="10" y="-50" as="offset" />
          </mxGeometry>
        </mxCell>
        <mxCell id="zAk3C4m2meEs_pBk8pqH-26" value="" style="endArrow=classic;html=1;rounded=0;fontFamily=isocpeur;fontSize=12;fontColor=default;dashed=1;exitX=0.009;exitY=0.589;exitDx=0;exitDy=0;entryX=0.984;entryY=0.393;entryDx=0;entryDy=0;entryPerimeter=0;exitPerimeter=0;strokeWidth=4;" parent="lW8Ky7CH6mHDjnRsKa6J-424" source="zAk3C4m2meEs_pBk8pqH-15" target="zAk3C4m2meEs_pBk8pqH-6" edge="1">
          <mxGeometry width="50" height="50" relative="1" as="geometry">
            <mxPoint x="1654.6961240310077" y="327.1806451612904" as="sourcePoint" />
            <mxPoint x="1265.995348837209" y="611.1387096774193" as="targetPoint" />
          </mxGeometry>
        </mxCell>
        <mxCell id="zAk3C4m2meEs_pBk8pqH-27" value="&quot;Extend&quot;" style="edgeLabel;html=1;align=center;verticalAlign=bottom;resizable=0;points=[];strokeColor=default;fontFamily=isocpeur;fontSize=33;fontColor=default;fillColor=default;labelPosition=center;verticalLabelPosition=top;" parent="zAk3C4m2meEs_pBk8pqH-26" vertex="1" connectable="0">
          <mxGeometry relative="1" as="geometry">
            <mxPoint x="36" y="-39" as="offset" />
          </mxGeometry>
        </mxCell>
        <mxCell id="zAk3C4m2meEs_pBk8pqH-28" value="" style="endArrow=none;html=1;rounded=0;fontFamily=isocpeur;fontSize=12;fontColor=default;entryX=0;entryY=1;entryDx=0;entryDy=0;strokeWidth=4;" parent="lW8Ky7CH6mHDjnRsKa6J-424" target="zAk3C4m2meEs_pBk8pqH-6" edge="1">
          <mxGeometry width="50" height="50" relative="1" as="geometry">
            <mxPoint x="751.0930232558139" y="791.2096774193549" as="sourcePoint" />
            <mxPoint x="1003.4961240310076" y="687.3225806451611" as="targetPoint" />
          </mxGeometry>
        </mxCell>
        <mxCell id="zAk3C4m2meEs_pBk8pqH-29" value="" style="endArrow=none;html=1;rounded=0;fontFamily=isocpeur;fontSize=12;fontColor=default;entryX=0;entryY=0.5;entryDx=0;entryDy=0;strokeWidth=4;" parent="lW8Ky7CH6mHDjnRsKa6J-424" target="zAk3C4m2meEs_pBk8pqH-3" edge="1">
          <mxGeometry width="50" height="50" relative="1" as="geometry">
            <mxPoint x="751.0930232558139" y="860.4677419354838" as="sourcePoint" />
            <mxPoint x="1053.9767441860463" y="895.0967741935483" as="targetPoint" />
          </mxGeometry>
        </mxCell>
        <mxCell id="zAk3C4m2meEs_pBk8pqH-30" value="" style="endArrow=classic;html=1;rounded=0;fontFamily=isocpeur;fontSize=12;fontColor=default;dashed=1;exitX=0;exitY=0.5;exitDx=0;exitDy=0;entryX=1;entryY=0.5;entryDx=0;entryDy=0;strokeWidth=4;" parent="lW8Ky7CH6mHDjnRsKa6J-424" source="zAk3C4m2meEs_pBk8pqH-4" target="zAk3C4m2meEs_pBk8pqH-3" edge="1">
          <mxGeometry width="50" height="50" relative="1" as="geometry">
            <mxPoint x="1962.6279069767438" y="964.3548387096774" as="sourcePoint" />
            <mxPoint x="1488.1100775193797" y="1158.2774193548387" as="targetPoint" />
          </mxGeometry>
        </mxCell>
        <mxCell id="zAk3C4m2meEs_pBk8pqH-31" value="&quot;include&quot;" style="edgeLabel;html=1;align=center;verticalAlign=bottom;resizable=0;points=[];strokeColor=default;fontFamily=isocpeur;fontSize=33;fontColor=default;fillColor=default;labelPosition=center;verticalLabelPosition=top;" parent="zAk3C4m2meEs_pBk8pqH-30" vertex="1" connectable="0">
          <mxGeometry relative="1" as="geometry">
            <mxPoint x="14" y="-10" as="offset" />
          </mxGeometry>
        </mxCell>
        <mxCell id="zAk3C4m2meEs_pBk8pqH-32" value="" style="endArrow=classic;html=1;rounded=0;fontFamily=isocpeur;fontSize=12;fontColor=default;dashed=1;exitX=0;exitY=0.5;exitDx=0;exitDy=0;entryX=1;entryY=0.5;entryDx=0;entryDy=0;strokeWidth=4;" parent="lW8Ky7CH6mHDjnRsKa6J-424" source="zAk3C4m2meEs_pBk8pqH-5" target="zAk3C4m2meEs_pBk8pqH-4" edge="1">
          <mxGeometry width="50" height="50" relative="1" as="geometry">
            <mxPoint x="2416.9534883720926" y="859.4635000000001" as="sourcePoint" />
            <mxPoint x="2114.06976744186" y="859.4635000000001" as="targetPoint" />
          </mxGeometry>
        </mxCell>
        <mxCell id="zAk3C4m2meEs_pBk8pqH-33" value="&quot;include&quot;" style="edgeLabel;html=1;align=center;verticalAlign=bottom;resizable=0;points=[];strokeColor=default;fontFamily=isocpeur;fontSize=33;fontColor=default;fillColor=default;labelPosition=center;verticalLabelPosition=top;" parent="zAk3C4m2meEs_pBk8pqH-32" vertex="1" connectable="0">
          <mxGeometry relative="1" as="geometry">
            <mxPoint x="1" y="-12" as="offset" />
          </mxGeometry>
        </mxCell>
        <mxCell id="zAk3C4m2meEs_pBk8pqH-34" value="Получить состояние элемента" style="ellipse;whiteSpace=wrap;html=1;fontSize=33;fontFamily=isocpeur;" parent="lW8Ky7CH6mHDjnRsKa6J-424" vertex="1">
          <mxGeometry x="2265.511627906976" y="479.54838709677415" width="403.84496124031006" height="138.51612903225802" as="geometry" />
        </mxCell>
        <mxCell id="zAk3C4m2meEs_pBk8pqH-35" value="" style="endArrow=classic;html=1;rounded=0;fontFamily=isocpeur;fontSize=12;fontColor=default;dashed=1;exitX=-0.002;exitY=0.671;exitDx=0;exitDy=0;entryX=1;entryY=0;entryDx=0;entryDy=0;exitPerimeter=0;strokeWidth=4;" parent="lW8Ky7CH6mHDjnRsKa6J-424" source="zAk3C4m2meEs_pBk8pqH-34" target="zAk3C4m2meEs_pBk8pqH-3" edge="1">
          <mxGeometry width="50" height="50" relative="1" as="geometry">
            <mxPoint x="1760.7054263565888" y="444.9193548387097" as="sourcePoint" />
            <mxPoint x="1286.1875968992247" y="638.8419354838708" as="targetPoint" />
          </mxGeometry>
        </mxCell>
        <mxCell id="zAk3C4m2meEs_pBk8pqH-36" value="&quot;Extend&quot;" style="edgeLabel;html=1;align=center;verticalAlign=bottom;resizable=0;points=[];strokeColor=default;fontFamily=isocpeur;fontSize=33;fontColor=default;fillColor=default;labelPosition=center;verticalLabelPosition=top;" parent="zAk3C4m2meEs_pBk8pqH-35" vertex="1" connectable="0">
          <mxGeometry relative="1" as="geometry">
            <mxPoint x="-14" y="-22" as="offset" />
          </mxGeometry>
        </mxCell>
        <mxCell id="zAk3C4m2meEs_pBk8pqH-37" value="&lt;font style=&quot;font-size: 33px;&quot;&gt;Добавить уникальный элемент&lt;/font&gt;" style="ellipse;whiteSpace=wrap;html=1;fontSize=33;fontFamily=isocpeur;" parent="lW8Ky7CH6mHDjnRsKa6J-424" vertex="1">
          <mxGeometry x="1053.9767441860463" y="1033.6129032258063" width="353.3643410852714" height="138.51612903225802" as="geometry" />
        </mxCell>
        <mxCell id="zAk3C4m2meEs_pBk8pqH-38" value="&lt;font style=&quot;font-size: 33px;&quot;&gt;Выбрать тестируемую страницу&lt;/font&gt;" style="ellipse;whiteSpace=wrap;html=1;fontSize=33;fontFamily=isocpeur;" parent="lW8Ky7CH6mHDjnRsKa6J-424" vertex="1">
          <mxGeometry x="1811.1860465116276" y="1033.6129032258063" width="353.3643410852714" height="138.51612903225802" as="geometry" />
        </mxCell>
        <mxCell id="zAk3C4m2meEs_pBk8pqH-39" value="" style="endArrow=classic;html=1;rounded=0;fontFamily=isocpeur;fontSize=12;fontColor=default;dashed=1;exitX=0;exitY=0.5;exitDx=0;exitDy=0;entryX=1;entryY=0.5;entryDx=0;entryDy=0;strokeWidth=4;" parent="lW8Ky7CH6mHDjnRsKa6J-424" source="zAk3C4m2meEs_pBk8pqH-38" target="zAk3C4m2meEs_pBk8pqH-37" edge="1">
          <mxGeometry width="50" height="50" relative="1" as="geometry">
            <mxPoint x="1710.22480620155" y="998.983870967742" as="sourcePoint" />
            <mxPoint x="1356.860465116279" y="998.983870967742" as="targetPoint" />
          </mxGeometry>
        </mxCell>
        <mxCell id="zAk3C4m2meEs_pBk8pqH-40" value="&quot;include&quot;" style="edgeLabel;html=1;align=center;verticalAlign=bottom;resizable=0;points=[];strokeColor=default;fontFamily=isocpeur;fontSize=33;fontColor=default;fillColor=default;labelPosition=center;verticalLabelPosition=top;" parent="zAk3C4m2meEs_pBk8pqH-39" vertex="1" connectable="0">
          <mxGeometry relative="1" as="geometry">
            <mxPoint y="-10" as="offset" />
          </mxGeometry>
        </mxCell>
        <mxCell id="zAk3C4m2meEs_pBk8pqH-41" value="" style="endArrow=none;html=1;rounded=0;fontFamily=isocpeur;fontSize=12;fontColor=default;entryX=0;entryY=0.5;entryDx=0;entryDy=0;strokeWidth=4;" parent="lW8Ky7CH6mHDjnRsKa6J-424" target="zAk3C4m2meEs_pBk8pqH-37" edge="1">
          <mxGeometry width="50" height="50" relative="1" as="geometry">
            <mxPoint x="751.0930232558139" y="895.0967741935483" as="sourcePoint" />
            <mxPoint x="1053.9767441860463" y="1068.241935483871" as="targetPoint" />
          </mxGeometry>
        </mxCell>
        <mxCell id="zAk3C4m2meEs_pBk8pqH-42" value="Добавить дополнительные настройки запуска" style="ellipse;whiteSpace=wrap;html=1;strokeColor=default;align=center;verticalAlign=middle;fontFamily=isocpeur;fontSize=33;fontColor=default;fillColor=default;" parent="lW8Ky7CH6mHDjnRsKa6J-424" vertex="1">
          <mxGeometry x="1053.9767441860463" y="1276.016129032258" width="454.3255813953487" height="173.1451612903226" as="geometry" />
        </mxCell>
        <mxCell id="zAk3C4m2meEs_pBk8pqH-43" value="" style="endArrow=none;html=1;rounded=0;fontFamily=isocpeur;fontSize=12;fontColor=default;exitX=0;exitY=0;exitDx=0;exitDy=0;strokeWidth=4;" parent="lW8Ky7CH6mHDjnRsKa6J-424" source="zAk3C4m2meEs_pBk8pqH-42" edge="1">
          <mxGeometry width="50" height="50" relative="1" as="geometry">
            <mxPoint x="801.5736434108526" y="1345.2741935483875" as="sourcePoint" />
            <mxPoint x="751.0930232558139" y="998.983870967742" as="targetPoint" />
          </mxGeometry>
        </mxCell>
        <mxCell id="zAk3C4m2meEs_pBk8pqH-44" value="" style="endArrow=classic;html=1;rounded=0;fontFamily=isocpeur;fontSize=12;fontColor=default;dashed=1;entryX=1;entryY=0.5;entryDx=0;entryDy=0;exitX=0;exitY=0.5;exitDx=0;exitDy=0;strokeWidth=4;" parent="lW8Ky7CH6mHDjnRsKa6J-424" source="zAk3C4m2meEs_pBk8pqH-46" target="zAk3C4m2meEs_pBk8pqH-42" edge="1">
          <mxGeometry width="50" height="50" relative="1" as="geometry">
            <mxPoint x="1912.1472868217056" y="1362.5887096774195" as="sourcePoint" />
            <mxPoint x="1596.6434108527128" y="1361.5844677419354" as="targetPoint" />
          </mxGeometry>
        </mxCell>
        <mxCell id="zAk3C4m2meEs_pBk8pqH-45" value="&quot;include&quot;" style="edgeLabel;html=1;align=center;verticalAlign=bottom;resizable=0;points=[];strokeColor=default;fontFamily=isocpeur;fontSize=33;fontColor=default;fillColor=default;labelPosition=center;verticalLabelPosition=top;" parent="zAk3C4m2meEs_pBk8pqH-44" vertex="1" connectable="0">
          <mxGeometry relative="1" as="geometry">
            <mxPoint y="-9" as="offset" />
          </mxGeometry>
        </mxCell>
        <mxCell id="zAk3C4m2meEs_pBk8pqH-46" value="&lt;font style=&quot;font-size: 33px;&quot;&gt;Выбрать браузер&lt;/font&gt;" style="ellipse;whiteSpace=wrap;html=1;fontSize=33;fontFamily=isocpeur;" parent="lW8Ky7CH6mHDjnRsKa6J-424" vertex="1">
          <mxGeometry x="1760.7054263565888" y="1293.33064516129" width="353.3643410852714" height="138.51612903225802" as="geometry" />
        </mxCell>
        <mxCell id="zAk3C4m2meEs_pBk8pqH-47" value="" style="endArrow=classic;html=1;rounded=0;fontFamily=isocpeur;fontSize=12;fontColor=default;dashed=1;entryX=1;entryY=0.5;entryDx=0;entryDy=0;exitX=0;exitY=0.5;exitDx=0;exitDy=0;strokeWidth=4;" parent="lW8Ky7CH6mHDjnRsKa6J-424" source="zAk3C4m2meEs_pBk8pqH-49" target="zAk3C4m2meEs_pBk8pqH-46" edge="1">
          <mxGeometry width="50" height="50" relative="1" as="geometry">
            <mxPoint x="2568.395348837209" y="1362.5887096774195" as="sourcePoint" />
            <mxPoint x="2164.550387596899" y="1362.5887096774195" as="targetPoint" />
          </mxGeometry>
        </mxCell>
        <mxCell id="zAk3C4m2meEs_pBk8pqH-48" value="&quot;include&quot;" style="edgeLabel;html=1;align=center;verticalAlign=bottom;resizable=0;points=[];strokeColor=default;fontFamily=isocpeur;fontSize=33;fontColor=default;fillColor=default;labelPosition=center;verticalLabelPosition=top;" parent="zAk3C4m2meEs_pBk8pqH-47" vertex="1" connectable="0">
          <mxGeometry relative="1" as="geometry">
            <mxPoint y="-14" as="offset" />
          </mxGeometry>
        </mxCell>
        <mxCell id="zAk3C4m2meEs_pBk8pqH-49" value="&lt;font style=&quot;font-size: 33px;&quot;&gt;Инициализировать драйвер для браузера&lt;/font&gt;" style="ellipse;whiteSpace=wrap;html=1;fontSize=33;fontFamily=isocpeur;" parent="lW8Ky7CH6mHDjnRsKa6J-424" vertex="1">
          <mxGeometry x="2444.003798449612" y="1284.6761290322581" width="504.80620155038747" height="155.83064516129028" as="geometry" />
        </mxCell>
        <mxCell id="zAk3C4m2meEs_pBk8pqH-50" value="Получить доступ к исходному коду" style="ellipse;whiteSpace=wrap;html=1;strokeColor=default;align=center;verticalAlign=middle;fontFamily=isocpeur;fontSize=33;fontColor=default;fillColor=default;" parent="lW8Ky7CH6mHDjnRsKa6J-424" vertex="1">
          <mxGeometry x="1489.3720930232557" y="1691.5645161290324" width="403.84496124031006" height="138.51612903225802" as="geometry" />
        </mxCell>
        <mxCell id="zAk3C4m2meEs_pBk8pqH-51" value="Создать Pull Request" style="ellipse;whiteSpace=wrap;html=1;strokeColor=default;align=center;verticalAlign=middle;fontFamily=isocpeur;fontSize=33;fontColor=default;fillColor=default;" parent="lW8Ky7CH6mHDjnRsKa6J-424" vertex="1">
          <mxGeometry x="1192.7984496124031" y="1518.4193548387098" width="403.84496124031006" height="138.51612903225802" as="geometry" />
        </mxCell>
        <mxCell id="zAk3C4m2meEs_pBk8pqH-52" value="Добавить Code-review" style="ellipse;whiteSpace=wrap;html=1;strokeColor=default;align=center;verticalAlign=middle;fontFamily=isocpeur;fontSize=33;fontColor=default;fillColor=default;" parent="lW8Ky7CH6mHDjnRsKa6J-424" vertex="1">
          <mxGeometry x="1274.829457364341" y="2072.483870967742" width="403.84496124031006" height="138.51612903225802" as="geometry" />
        </mxCell>
        <mxCell id="zAk3C4m2meEs_pBk8pqH-53" value="Произвести слияние измнений" style="ellipse;whiteSpace=wrap;html=1;strokeColor=default;align=center;verticalAlign=middle;fontFamily=isocpeur;fontSize=33;fontColor=default;fillColor=default;" parent="lW8Ky7CH6mHDjnRsKa6J-424" vertex="1">
          <mxGeometry x="1508.302325581395" y="1899.3387096774195" width="403.84496124031006" height="138.51612903225802" as="geometry" />
        </mxCell>
        <mxCell id="zAk3C4m2meEs_pBk8pqH-54" value="" style="endArrow=none;html=1;rounded=0;fontFamily=isocpeur;fontSize=12;fontColor=default;entryX=0;entryY=0.5;entryDx=0;entryDy=0;strokeWidth=4;" parent="lW8Ky7CH6mHDjnRsKa6J-424" target="zAk3C4m2meEs_pBk8pqH-51" edge="1">
          <mxGeometry width="50" height="50" relative="1" as="geometry">
            <mxPoint x="751.0930232558139" y="1691.5645161290324" as="sourcePoint" />
            <mxPoint x="1205.4186046511627" y="1795.4516129032259" as="targetPoint" />
          </mxGeometry>
        </mxCell>
        <mxCell id="zAk3C4m2meEs_pBk8pqH-55" value="" style="endArrow=none;html=1;rounded=0;fontFamily=isocpeur;fontSize=12;fontColor=default;entryX=0;entryY=0.5;entryDx=0;entryDy=0;strokeWidth=4;" parent="lW8Ky7CH6mHDjnRsKa6J-424" target="zAk3C4m2meEs_pBk8pqH-50" edge="1">
          <mxGeometry width="50" height="50" relative="1" as="geometry">
            <mxPoint x="751.0930232558139" y="1726.1935483870966" as="sourcePoint" />
            <mxPoint x="1356.860465116279" y="1726.1935483870966" as="targetPoint" />
          </mxGeometry>
        </mxCell>
        <mxCell id="zAk3C4m2meEs_pBk8pqH-56" value="" style="endArrow=none;html=1;rounded=0;fontFamily=isocpeur;fontSize=12;fontColor=default;entryX=0;entryY=0;entryDx=0;entryDy=0;strokeWidth=4;" parent="lW8Ky7CH6mHDjnRsKa6J-424" target="zAk3C4m2meEs_pBk8pqH-53" edge="1">
          <mxGeometry width="50" height="50" relative="1" as="geometry">
            <mxPoint x="751.0930232558139" y="1760.8225806451612" as="sourcePoint" />
            <mxPoint x="1306.3798449612402" y="1830.0806451612902" as="targetPoint" />
          </mxGeometry>
        </mxCell>
        <mxCell id="zAk3C4m2meEs_pBk8pqH-57" value="" style="endArrow=none;html=1;rounded=0;fontFamily=isocpeur;fontSize=12;fontColor=default;entryX=0;entryY=0;entryDx=0;entryDy=0;strokeWidth=4;" parent="lW8Ky7CH6mHDjnRsKa6J-424" target="zAk3C4m2meEs_pBk8pqH-52" edge="1">
          <mxGeometry width="50" height="50" relative="1" as="geometry">
            <mxPoint x="801.5736434108526" y="1830.0806451612902" as="sourcePoint" />
            <mxPoint x="1306.3798449612402" y="1899.3387096774195" as="targetPoint" />
          </mxGeometry>
        </mxCell>
        <UserObject label="" tags="Spaces Building_Envelope Dimensions Non-Movable_Furnishings Connector Annotations Блок-схема Соединительная_линия Контейнер" id="lW8Ky7CH6mHDjnRsKa6J-423">
          <mxCell parent="WIyWlLk6GJQsqaUBKTNV-1" vertex="1" visible="0">
            <mxGeometry x="901.60009765625" y="1890.39990234375" as="geometry" />
          </mxCell>
        </UserObject>
        <UserObject label="&lt;div style=&quot;&quot;&gt;&lt;p style=&quot;text-align: left; margin: 0px; text-indent: 0px; vertical-align: middle; direction: ltr;&quot;&gt;&lt;span style=&quot;font-size: 16.93px;&quot;&gt;&lt;i&gt;Балтрукович&lt;/i&gt;&lt;/span&gt;&lt;/p&gt;&lt;/div&gt;" tags="Фон" id="_PGwspeb1SYpaBaa2xgP-0">
          <mxCell style="verticalAlign=middle;align=left;overflow=width;vsdxID=636;fillColor=none;gradientColor=none;shape=stencil(nZBLDoAgDERP0z3SIyjew0SURgSD+Lu9kMZoXLhwN9O+tukAlrNpJg1SzDH4QW/URgNYgZTkjA4UkwJUgGXng+6DX1zLfmoymdXo17xh5zmRJ6Q42BWCfc2oJfdAr+Yv+AP9Cb7OJ3H/2JG1HNGz/84klThPVCc=);strokeColor=none;spacingTop=-2;spacingBottom=-2;spacingLeft=-2;spacingRight=-2;points=[];labelBackgroundColor=none;rounded=0;html=1;whiteSpace=wrap;fontFamily=isocpeur;" vertex="1" parent="WIyWlLk6GJQsqaUBKTNV-1">
            <mxGeometry x="2621.0322154222767" y="2235" width="90.79865361077111" height="19" as="geometry" />
          </mxCell>
        </UserObject>
      </root>
    </mxGraphModel>
  </diagram>
</mxfile>
